<svg width="689" height="149" viewBox="0 0 689 149" fill="none" xmlns="http://www.w3.org/2000/svg">
<path d="M88.3707 54.3232C88.7128 54.3232 89.0578 54.3561 89.3999 54.3771C87.5033 42.5036 81.9446 31.533 73.5119 23.0209C65.0791 14.5087 54.2005 8.88707 42.4185 6.95312C31.2751 12.2957 21.6264 20.3476 14.3416 30.3832C7.05692 40.4188 2.36516 52.1226 0.689162 64.4402C-0.986838 76.7577 0.405586 89.3018 4.74096 100.942C9.07634 112.582 16.2184 122.953 25.5236 131.12C24.9219 128.564 24.4818 125.973 24.2059 123.362C23.8857 120.297 23.7863 117.214 23.9085 114.135C24.2423 105.944 26.1742 97.8992 29.5941 90.4603C33.0141 83.0214 37.8549 76.334 43.8403 70.7799C49.8256 65.2258 56.8383 60.9138 64.4778 58.0902C72.1174 55.2665 80.2342 53.9865 88.3648 54.3232H88.3707Z" fill="white"/>
<path d="M101.983 106.535C90.9193 106.087 80.1742 102.699 70.8523 96.7196C61.5304 90.7404 53.968 82.3855 48.9423 72.5137C42.9245 77.6369 38.0327 83.9518 34.5753 91.0605C31.1179 98.1691 29.1698 105.917 28.8539 113.817C28.74 116.644 28.832 119.477 29.1295 122.291C29.6232 126.943 30.6875 131.516 32.2984 135.908C43.8889 143.862 57.4903 148.378 71.5347 148.934C72.583 148.976 73.6313 149 74.6706 149C91.9483 149.01 108.696 143.032 122.066 132.083C135.436 121.134 144.602 105.889 148.007 88.9413C141.93 94.8452 134.716 99.4497 126.804 102.474C118.891 105.499 110.446 106.881 101.983 106.535V106.535Z" fill="white"/>
<path d="M138.87 89.6893C142.544 86.8997 145.866 83.6774 148.762 80.0929C148.837 79.1585 148.896 78.1914 148.935 77.2036C149.421 65.1819 146.964 53.2228 141.775 42.3566C136.587 31.4903 128.823 22.0426 119.152 14.8274C109.481 7.61211 98.1932 2.8456 86.2607 0.938421C74.3282 -0.968755 62.1089 0.0405849 50.6553 3.87949C62.4644 7.29935 72.9845 14.1396 80.8769 23.5297C88.7692 32.9199 93.6769 44.4353 94.9755 56.6107C95.2964 59.645 95.396 62.6986 95.2734 65.7473C94.8229 77.2298 91.1434 88.3557 84.6537 97.8588C93.6555 101.138 103.341 102.108 112.819 100.68C122.296 99.2523 131.26 95.4726 138.884 89.6893H138.87Z" fill="white"/>
<path d="M203 32H220.491L264.793 89.792V32H282.398V118H264.62L220.261 60.0933V118H203V32Z" fill="white"/>
<path d="M309.909 118L343.567 32H363.302L396.96 118H378.146L370.897 98.736H335.973L328.723 118H309.909ZM365.143 83.256C362.842 76.5289 360.79 70.5089 358.987 65.196C357.184 59.8831 355.343 54.3982 353.463 48.7413C351.584 54.3982 349.724 59.8831 347.883 65.196C346.08 70.5089 344.028 76.5289 341.726 83.256H365.143Z" fill="white"/>
<path d="M405.117 32H424.161L446.14 67.8907L467.083 32H486.357L455.288 84.3453V118H437.682V84.3453L405.117 32Z" fill="white"/>
<path d="M514.292 118V32H545.822C555.066 32 562.238 33.8729 567.34 37.6187C572.48 41.3262 575.049 46.7347 575.049 53.844C575.049 58.3924 573.975 62.2529 571.827 65.4253C569.679 68.5978 566.611 71.044 562.622 72.764C567.685 74.484 571.578 77.1596 574.301 80.7907C577.025 84.3836 578.386 88.8556 578.386 94.2067C578.386 101.928 575.625 107.833 570.101 111.923C564.578 115.974 556.849 118 546.915 118H514.292ZM545.131 47.48H531.898V66.4H545.131C548.967 66.4 551.94 65.5973 554.049 63.992C556.159 62.3484 557.214 59.9978 557.214 56.94C557.214 53.8822 556.159 51.5507 554.049 49.9453C551.94 48.3018 548.967 47.48 545.131 47.48ZM531.898 102.52H546.282C550.808 102.52 554.318 101.564 556.811 99.6533C559.304 97.704 560.551 94.9138 560.551 91.2827C560.551 87.6516 559.304 84.8996 556.811 83.0267C554.318 81.1156 550.808 80.16 546.282 80.16H531.898V102.52Z" fill="white"/>
<path d="M601.949 118L635.607 32H655.342L689 118H670.186L662.937 98.736H628.013L620.763 118H601.949ZM657.183 83.256C654.882 76.5289 652.83 70.5089 651.027 65.196C649.224 59.8831 647.383 54.3982 645.503 48.7413C643.624 54.3982 641.764 59.8831 639.923 65.196C638.12 70.5089 636.068 76.5289 633.766 83.256H657.183Z" fill="white"/>
</svg>
