<svg aria-label="Oxfam" class="header__logo" id="oxfam-logo" role="img" viewBox="0 0 185 70" xmlns="http://www.w3.org/2000/svg" xmlns:xlink="http://www.w3.org/1999/xlink">
<path d="M96.015 27.23c0-2.1-2.16-2.81-3.427-2.81s-3.43.71-3.43 2.81v11.43c0 2.1 2.163 2.81 3.43 2.81 1.267 0 3.427-.71 3.427-2.81V27.23zm5.54-.426v12.28c0 3.633-2.844 7.91-8.967 7.926-6.124-.017-8.967-4.293-8.967-7.926v-12.28c0-3.63 2.844-7.906 8.968-7.923 6.123.018 8.967 4.295 8.967 7.924l-.001-.001zm29.785 19.704V35.816h8.496v-5.48h-8.457v-5.443h9.81V19.38h-15.376v27.128m22.827-10.126h4.468l-2.213-8.536-2.255 8.536zm5.85 5.32h-7.21l-1.267 4.806h-5.548l7.106-27.13h6.463l7.222 27.13h-5.523l-1.242-4.806h-.001zm24.58-22.322l-4.876 10.436-4.942-10.437h-5.673v27.128h5.412V31.075l3.48 7.215h3.456l3.48-7.192v15.41h5.413v-27.13m-68.856 13.547l7.053-13.546h-6.4l-3.858 7.898-3.86-7.9h-6.4l7.053 13.547-7.09 13.583h6.472l3.824-7.88 3.823 7.88h6.472m-81.15-6.205c4.15-2.267 7.056-6.505 7.426-11.456a.357.357 0 00-.36-.355h-6.393c-.198 0-.336.157-.36.356-.517 3.497-3.543 6.18-7.2 6.18-3.654 0-6.68-2.683-7.2-6.18-.018-.207-.16-.355-.36-.355h-6.39a.358.358 0 00-.358.356c.367 4.95 3.276 9.19 7.423 11.456-4.348 2.374-7.33 6.92-7.46 12.174 0 .198.16.358.36.358h6.354a.36.36 0 00.36-.358c.187-3.837 3.372-6.892 7.27-6.892 3.904 0 7.088 3.055 7.274 6.892a.36.36 0 00.36.358h6.356c.198 0 .358-.16.358-.358-.13-5.255-3.11-9.8-7.46-12.174M21.077 27.06h6.392c.198 0 .338-.156.358-.357.52-3.495 3.546-6.178 7.2-6.178 3.656 0 6.683 2.683 7.203 6.178.024.197.183.357.38.357h6.37c.198 0 .358-.16.358-.356-.55-7.392-6.745-13.217-14.31-13.217-7.563 0-13.758 5.825-14.308 13.217 0 .197.16.356.358.356m48.98 7.82c0 19.267-15.682 34.884-35.03 34.884C15.684 69.764 0 54.147 0 34.88 0 15.618 15.683 0 35.03 0c19.346 0 35.03 15.617 35.03 34.88" fill-rule="nonzero"></path>
</svg>