<svg width="448" height="103" viewBox="0 0 448 103" fill="none" xmlns="http://www.w3.org/2000/svg">
<g clip-path="url(#clip0_433_487)">
<path d="M167.1 36C171.7 40.2 174.1 46.1 174.1 53.6C174.1 61.1 171.8 67 167.3 71.4C162.8 75.8 155.9 78 146.6 78H130.6V29.8H147.2C155.8 29.7 162.4 31.8 167.1 36ZM165.8 53.8C165.8 42.8 159.5 37.2 146.8 37.2H138.7V70.2H147.7C153.5 70.2 158 68.8 161.1 66C164.2 63.2 165.8 59.2 165.8 53.8Z" fill="white"/>
<path d="M200 37.1V77.9H191.9V37.1H177.3V29.7H214.7V37.1H200Z" fill="white"/>
<path d="M271.7 54.4H279.8V70.9C275.2 75.9 268.7 78.4 260.3 78.4C253.63 78.5929 247.169 76.0661 242.4 71.4C237.608 66.7403 234.995 60.2809 235.2 53.6C235.2 46.4 237.6 40.4 242.5 35.7C247.203 30.9732 253.633 28.3723 260.3 28.5C267.2 28.5 273 30.5 277.6 34.6L273.3 40.8C271.636 39.3351 269.699 38.2136 267.6 37.5C265.426 36.8593 263.166 36.5557 260.9 36.6C256.341 36.4852 251.921 38.1742 248.6 41.3C245.258 44.5427 243.442 49.0463 243.6 53.7C243.6 58.8 245.2 62.9 248.4 66C251.507 69.0795 255.726 70.7742 260.1 70.7C264.144 70.845 268.142 69.8021 271.6 67.7V54.4H271.7Z" fill="white"/>
<path d="M297.2 77.9H289.5V26.7H297.2V77.9Z" fill="white"/>
<path d="M339 73C331.262 80.3347 319.138 80.3347 311.4 73C304.065 65.5725 304.065 53.6276 311.4 46.2C319.138 38.8653 331.262 38.8653 339 46.2C342.617 49.7071 344.61 54.5627 344.5 59.6C344.638 64.6423 342.64 69.5085 339 73ZM316.9 68.2C321.559 72.5989 328.841 72.5989 333.5 68.2C335.749 65.877 336.943 62.7304 336.8 59.5C336.906 56.2757 335.717 53.143 333.5 50.8C328.841 46.4011 321.559 46.4011 316.9 50.8C314.651 53.123 313.457 56.2696 313.6 59.5C313.551 62.7146 314.731 65.8267 316.9 68.2Z" fill="white"/>
<path d="M373 40.6C377.717 40.5259 382.263 42.3658 385.6 45.7C389.1 49.1 390.8 53.6 390.8 59.3C390.8 65 389.1 69.6 385.6 73.1C382.472 76.4625 378.092 78.3809 373.5 78.4C368.9 78.4 364.7 76.4 361 72.3V77.8H353.3V26.6H361V47.5C364.1 43 368.1 40.6 373 40.6ZM360.9 59.6C360.785 62.7774 361.936 65.8705 364.1 68.2C366.083 70.3423 368.882 71.5419 371.8 71.5C374.773 71.5247 377.628 70.3324 379.7 68.2C382 65.9438 383.235 62.8187 383.1 59.6C383.188 56.3489 382.004 53.1918 379.8 50.8C377.775 48.5757 374.908 47.3055 371.9 47.3C368.913 47.2668 366.061 48.5463 364.1 50.8C361.966 53.2275 360.824 56.3689 360.9 59.6Z" fill="white"/>
<path d="M429.4 77.9H422.4V73C419.393 76.5976 414.885 78.5931 410.2 78.4C406.752 78.5091 403.379 77.3732 400.7 75.2C398.173 73.0311 396.774 69.8277 396.9 66.5C396.9 62.9 398.2 60.2 400.9 58.4C403.6 56.6 407.2 55.7 411.7 55.7H421.7V54.3C421.7 49.4 419 47 413.6 47C410.2 47 406.7 48.2 403 50.7L399.6 45.9C403.905 42.4362 409.274 40.5641 414.8 40.6C419.1 40.6 422.7 41.7 425.4 43.9C428.1 46.1 429.5 49.5 429.5 54.2L429.4 77.9ZM421.7 64.2V61.1H413C407.4 61.1 404.7 62.8 404.7 66.3C404.612 67.9449 405.414 69.5104 406.8 70.4C408.559 71.414 410.572 71.9 412.6 71.8C414.911 71.857 417.172 71.1153 419 69.7C420.783 68.4508 421.802 66.375 421.7 64.2Z" fill="white"/>
<path d="M447.9 77.9H440.2V26.7H447.9V77.9Z" fill="white"/>
<path d="M66.8099 102.78H38.1899C37.5167 102.83 36.8719 102.5 36.5199 101.923C36.1679 101.347 36.1679 100.623 36.5199 100.047C36.8719 99.4704 37.5167 99.1397 38.1899 99.19H66.8099C67.4832 99.1397 68.128 99.4704 68.48 100.047C68.832 100.623 68.832 101.347 68.48 101.923C68.128 102.5 67.4832 102.83 66.8099 102.78Z" fill="white"/>
<path d="M98.32 75.23H6.68C5.61409 75.23 4.75 74.3659 4.75 73.3C4.75 72.2341 5.61409 71.37 6.68 71.37H98.32C99.3859 71.37 100.25 72.2341 100.25 73.3C100.25 74.3659 99.3859 75.23 98.32 75.23Z" fill="white"/>
<path d="M88.8 89.07H16.2C15.1341 89.07 14.27 88.2059 14.27 87.14C14.27 86.0741 15.1341 85.21 16.2 85.21H88.8C89.8659 85.21 90.73 86.0741 90.73 87.14C90.73 88.2059 89.8659 89.07 88.8 89.07Z" fill="white"/>
<path d="M34.55 61.38H2.55004C1.82918 61.432 1.13969 61.0769 0.76341 60.4598C0.387131 59.8428 0.387131 59.0672 0.76341 58.4502C1.13969 57.8331 1.82918 57.478 2.55004 57.53H34.55C35.2709 57.478 35.9604 57.8331 36.3367 58.4502C36.7129 59.0672 36.7129 59.8428 36.3367 60.4598C35.9604 61.0769 35.2709 61.432 34.55 61.38Z" fill="white"/>
<path d="M102.45 61.38H70.4501C69.4407 61.3072 68.6589 60.4671 68.6589 59.455C68.6589 58.443 69.4407 57.6028 70.4501 57.53H102.45C103.171 57.478 103.86 57.8331 104.237 58.4502C104.613 59.0672 104.613 59.8428 104.237 60.4598C103.86 61.0769 103.171 61.432 102.45 61.38Z" fill="white"/>
<path d="M34.0501 49C33.7961 48.9974 33.545 48.9465 33.3101 48.85L4.37009 36.85C3.68787 36.6198 3.19052 36.029 3.08003 35.3175C2.96955 34.606 3.26431 33.8921 3.84459 33.4659C4.42488 33.0396 5.1942 32.9718 5.84009 33.29L34.7901 45.29C35.6369 45.6449 36.1164 46.5471 35.9368 47.4475C35.7572 48.3479 34.9682 48.9972 34.0501 49Z" fill="white"/>
<path d="M71.05 49.45C70.1373 49.4456 69.3525 48.8024 69.1688 47.9084C68.9852 47.0143 69.4529 46.1138 70.29 45.75L99.13 33.33C100.096 32.9607 101.181 33.4179 101.591 34.367C102.001 35.316 101.591 36.4197 100.66 36.87L71.82 49.29C71.5773 49.3965 71.315 49.451 71.05 49.45Z" fill="white"/>
<path d="M40.9199 39.1301C40.385 39.1342 39.8731 38.9128 39.5099 38.52L18.1099 15.63C17.6025 15.1329 17.4092 14.3973 17.6066 13.715C17.804 13.0327 18.3602 12.5139 19.0546 12.3645C19.749 12.2151 20.4694 12.4592 20.9299 13L42.3199 35.89C42.6698 36.2621 42.857 36.7583 42.8401 37.2687C42.8232 37.7792 42.6036 38.2619 42.2299 38.61C41.8761 38.9449 41.4071 39.131 40.9199 39.1301Z" fill="white"/>
<path d="M65.1901 40C64.4358 40.0044 63.7487 39.5667 63.4339 38.8812C63.1192 38.1956 63.235 37.3892 63.7301 36.82L84.0001 13.06C84.7095 12.3319 85.862 12.2788 86.6353 12.9386C87.4086 13.5984 87.5375 14.7449 86.9301 15.56L66.6501 39.36C66.28 39.7759 65.7468 40.0097 65.1901 40Z" fill="white"/>
<path d="M52.5001 35.25C51.4342 35.25 50.5701 34.3859 50.5701 33.32V2.06C50.5701 0.994095 51.4342 0.130005 52.5001 0.130005C53.566 0.130005 54.4301 0.994095 54.4301 2.06V33.32C54.4301 33.8319 54.2267 34.3228 53.8648 34.6847C53.5028 35.0467 53.0119 35.25 52.5001 35.25Z" fill="white"/>
</g>
<defs>
<clipPath id="clip0_433_487">
<rect width="448" height="103" fill="white"/>
</clipPath>
</defs>
</svg>
