<svg width="185" height="70" viewBox="0 0 185 70" fill="none" xmlns="http://www.w3.org/2000/svg">
<g clip-path="url(#clip0_433_485)">
<path d="M96.015 27.23C96.015 25.13 93.855 24.42 92.588 24.42C91.321 24.42 89.158 25.13 89.158 27.23V38.66C89.158 40.76 91.321 41.47 92.588 41.47C93.855 41.47 96.015 40.76 96.015 38.66V27.23ZM101.555 26.804V39.084C101.555 42.717 98.711 46.994 92.588 47.01C86.464 46.993 83.621 42.717 83.621 39.084V26.804C83.621 23.174 86.465 18.898 92.589 18.881C98.712 18.899 101.556 23.176 101.556 26.805L101.555 26.804ZM131.34 46.508V35.816H139.836V30.336H131.379V24.893H141.189V19.38H125.813V46.508M148.64 36.382H153.108L150.895 27.846L148.64 36.382ZM154.49 41.702H147.28L146.013 46.508H140.465L147.571 19.378H154.034L161.256 46.508H155.733L154.49 41.702ZM179.07 19.38L174.194 29.816L169.252 19.379H163.579V46.507H168.991V31.075L172.471 38.29H175.927L179.407 31.098V46.508H184.82V19.378M115.964 32.925L123.017 19.379H116.617L112.759 27.277L108.899 19.377H102.499L109.552 32.924L102.462 46.507H108.934L112.758 38.627L116.581 46.507H123.053M41.903 40.302C46.053 38.035 48.959 33.797 49.329 28.846C49.3287 28.799 49.3192 28.7526 49.301 28.7093C49.2827 28.666 49.2561 28.6268 49.2227 28.5938C49.1892 28.5608 49.1496 28.5348 49.1061 28.5171C49.0625 28.4995 49.016 28.4906 48.969 28.491H42.576C42.378 28.491 42.24 28.648 42.216 28.847C41.699 32.344 38.673 35.027 35.016 35.027C31.362 35.027 28.336 32.344 27.816 28.847C27.798 28.64 27.656 28.492 27.456 28.492H21.066C20.9714 28.492 20.8806 28.5294 20.8136 28.5961C20.7465 28.6629 20.7085 28.7534 20.708 28.848C21.075 33.798 23.984 38.038 28.131 40.304C23.783 42.678 20.801 47.224 20.671 52.478C20.671 52.676 20.831 52.836 21.031 52.836H27.385C27.4801 52.836 27.5714 52.7983 27.6389 52.7313C27.7063 52.6642 27.7445 52.5731 27.745 52.478C27.932 48.641 31.117 45.586 35.015 45.586C38.919 45.586 42.103 48.641 42.289 52.478C42.2895 52.5731 42.3277 52.6642 42.3951 52.7313C42.4626 52.7983 42.5539 52.836 42.649 52.836H49.005C49.203 52.836 49.363 52.676 49.363 52.478C49.233 47.223 46.253 42.678 41.903 40.304M21.077 27.06H27.469C27.667 27.06 27.807 26.904 27.827 26.703C28.347 23.208 31.373 20.525 35.027 20.525C38.683 20.525 41.71 23.208 42.23 26.703C42.254 26.9 42.413 27.06 42.61 27.06H48.98C49.178 27.06 49.338 26.9 49.338 26.704C48.788 19.312 42.593 13.487 35.028 13.487C27.465 13.487 21.27 19.312 20.72 26.704C20.72 26.901 20.879 27.06 21.077 27.06ZM70.058 34.88C70.058 54.147 54.376 69.764 35.028 69.764C15.684 69.764 0 54.147 0 34.88C0 15.618 15.683 0 35.03 0C54.376 0 70.06 15.617 70.06 34.88" fill="white"/>
</g>
<defs>
<clipPath id="clip0_433_485">
<rect width="185" height="70" fill="white"/>
</clipPath>
</defs>
</svg>
