<svg width="787" height="283" viewBox="0 0 787 283" fill="none" xmlns="http://www.w3.org/2000/svg">
<g clip-path="url(#clip0_433_517)">
<path d="M785.8 139.37C785.858 141.513 785.274 143.625 784.125 145.435C782.975 147.244 781.312 148.67 779.347 149.528C777.383 150.387 775.207 150.64 773.098 150.254C770.989 149.869 769.042 148.863 767.509 147.365C765.975 145.867 764.923 143.945 764.488 141.846C764.053 139.746 764.254 137.565 765.066 135.58C765.879 133.596 767.264 131.899 769.047 130.708C770.829 129.516 772.926 128.883 775.07 128.89C776.465 128.863 777.852 129.115 779.15 129.629C780.447 130.143 781.629 130.91 782.628 131.885C783.626 132.86 784.421 134.024 784.965 135.309C785.51 136.594 785.794 137.974 785.8 139.37ZM766.95 139.37C766.916 140.462 767.103 141.55 767.5 142.568C767.897 143.586 768.495 144.514 769.259 145.296C770.023 146.077 770.936 146.696 771.945 147.117C772.954 147.537 774.037 147.749 775.13 147.74C776.206 147.741 777.272 147.524 778.262 147.104C779.253 146.683 780.149 146.067 780.896 145.292C781.643 144.517 782.225 143.599 782.609 142.594C782.993 141.588 783.17 140.516 783.13 139.44C783.173 138.355 782.996 137.272 782.611 136.256C782.227 135.241 781.641 134.313 780.89 133.528C780.139 132.744 779.237 132.118 778.239 131.69C777.242 131.261 776.167 131.038 775.081 131.033C773.995 131.028 772.919 131.242 771.918 131.662C770.916 132.082 770.009 132.7 769.251 133.478C768.493 134.256 767.9 135.179 767.506 136.191C767.113 137.203 766.927 138.284 766.96 139.37H766.95ZM773.41 144.87H771V134.39C772.32 134.158 773.66 134.051 775 134.07C776.264 133.97 777.531 134.234 778.65 134.83C778.977 135.115 779.236 135.47 779.409 135.868C779.581 136.265 779.664 136.697 779.65 137.13C779.606 137.717 779.369 138.273 778.977 138.713C778.584 139.152 778.058 139.45 777.48 139.56V139.69C778.001 139.902 778.455 140.253 778.791 140.704C779.128 141.155 779.335 141.69 779.39 142.25C779.495 143.161 779.755 144.047 780.16 144.87H777.54C777.137 144.063 776.857 143.2 776.71 142.31C776.52 141.16 775.88 140.65 774.54 140.65H773.39L773.41 144.87ZM773.47 138.87H774.62C775.96 138.87 777.05 138.43 777.05 137.34C777.05 136.25 776.35 135.74 774.81 135.74C774.36 135.733 773.91 135.777 773.47 135.87V138.87Z" fill="white"/>
<path d="M220.02 0.359985L154.33 118.05H118.69L122.19 45.88H121.87L81.9999 118.05H45.6299L52.7899 0.359985H85.5499L77.5799 72.21L77.9499 72.54L116.78 0.359985H152.1L147.43 73.02H147.75L184.37 0.359985H220.02Z" fill="white"/>
<path fill-rule="evenodd" clip-rule="evenodd" d="M238.43 32.88L212.67 118.05H179.84L205.51 32.88H238.43ZM248 0.359985L241.37 22.84H208.72L215.26 0.359985H248Z" fill="white"/>
<path d="M270 46C279.887 35.9667 291.303 30.9667 304.25 31C311.957 31 317.567 32.9667 321.08 36.9C322.819 38.8556 324.121 41.1597 324.898 43.6584C325.676 46.1571 325.912 48.793 325.59 51.39C325.29 54.8167 323.623 61.56 320.59 71.62L306.65 118.1H273.92L285.81 78.53C288.69 68.8433 290.19 63.3033 290.31 61.91C290.73 57.2033 288.797 54.85 284.51 54.85C279.69 54.85 275.29 57.11 271.31 61.63C267.33 66.15 264.057 72.6667 261.49 81.18L250.23 118.1H217.32L243.07 32.93H273.66L269.73 45.77L270 46Z" fill="white"/>
<path fill-rule="evenodd" clip-rule="evenodd" d="M404.12 52.23L376.94 55.48C376.54 50.4 373.37 47.8633 367.43 47.87C363.95 47.87 361.25 48.58 359.35 50.01C358.499 50.564 357.781 51.2997 357.249 52.1643C356.716 53.0289 356.382 54.0007 356.27 55.01C356.176 55.9237 356.309 56.8465 356.658 57.6962C357.007 58.5459 357.561 59.2961 358.27 59.88C359.75 61.2133 363.883 62.4167 370.67 63.49C381.597 65.3367 388.74 68.1233 392.1 71.85C395.46 75.5767 396.9 80.5567 396.42 86.79C395.753 95.4567 391.597 102.853 383.95 108.98C376.303 115.107 365.157 118.17 350.51 118.17C338.51 118.17 329.9 116.217 324.68 112.31C319.46 108.403 316.707 101.967 316.42 93L345.05 90.23C345.717 97.05 349.453 100.457 356.26 100.45C359.27 100.492 362.233 99.6991 364.82 98.16C366.023 97.5011 367.037 96.5466 367.769 95.3865C368.5 94.2265 368.924 92.8992 369 91.53C369.2 88.95 368.46 87.2 366.79 86.3C365.12 85.4 361.89 84.53 357.1 83.69C346.093 81.73 338.76 78.77 335.1 74.81C331.44 70.85 329.85 65.85 330.33 59.81C330.839 54.5841 332.768 49.5972 335.91 45.39C339.573 40.4331 344.531 36.582 350.24 34.26C356.46 31.54 363.953 30.18 372.72 30.18C382.72 30.18 390.28 31.83 395.4 35.13C400.52 38.43 403.433 44.1233 404.14 52.21L404.12 52.23Z" fill="white"/>
<path fill-rule="evenodd" clip-rule="evenodd" d="M492.83 32.1L470.23 116.18H443.16L446.78 103.34L446.45 103.03C437.837 113.123 427.81 118.167 416.37 118.16C409.49 118.16 404.49 116.193 401.37 112.26C398.236 108.218 396.801 103.113 397.37 98.03C397.663 94.39 399.197 87.4167 401.97 77.11L414.25 32.11H443L431.89 73.15C430.29 79.15 429.37 82.65 429.13 83.65C428.857 84.8372 428.68 86.0444 428.6 87.26V87.49C428.253 92.0433 429.92 94.3167 433.6 94.31C437.927 94.31 441.857 92.09 445.39 87.65C448.923 83.21 451.793 76.8433 454 68.55L463.83 32.1H492.83Z" fill="white"/>
<path fill-rule="evenodd" clip-rule="evenodd" d="M524.64 96.53C528.84 96.53 532.677 93.53 536.15 87.53C539.623 81.53 541.697 74.2933 542.37 65.82C542.777 60.64 542.11 56.9133 540.37 54.64C539.617 53.578 538.617 52.7141 537.458 52.1221C536.298 51.53 535.012 51.2274 533.71 51.24C528.377 51.24 524.043 54.5733 520.71 61.24C517.425 67.6174 515.43 74.5804 514.84 81.73C514.447 86.69 515.277 90.3867 517.33 92.82C518.2 93.9518 519.317 94.8693 520.596 95.5021C521.876 96.1348 523.283 96.4659 524.71 96.47L524.64 96.53ZM523.47 40.89C527.897 36.67 531.793 33.8333 535.16 32.38C538.935 30.8449 542.986 30.1028 547.06 30.2C555.493 30.2 561.717 33.3433 565.73 39.63C569.743 45.9167 571.33 54.3967 570.49 65.07C569.37 79.33 565.017 91.77 557.43 102.39C549.843 113.01 540.89 118.32 530.57 118.32C520.07 118.32 512.48 113.883 507.8 105.01L496.15 148.36H467.31L498.72 32.1H525.29L523.21 40.58L523.47 40.89Z" fill="white"/>
<path fill-rule="evenodd" clip-rule="evenodd" d="M610.25 96.53C614.45 96.53 618.287 93.53 621.76 87.53C625.233 81.53 627.313 74.3067 628 65.86C628.413 60.68 627.747 56.9533 626 54.68C625.246 53.618 624.247 52.7541 623.088 52.1621C621.928 51.57 620.642 51.2674 619.34 51.28C614.007 51.28 609.673 54.6133 606.34 61.28C603.055 67.6574 601.06 74.6204 600.47 81.77C600.083 86.73 600.913 90.4267 602.96 92.86C603.83 93.9907 604.948 94.9074 606.227 95.54C607.506 96.1726 608.913 96.5044 610.34 96.51L610.25 96.53ZM609.08 40.89C613.507 36.67 617.403 33.8333 620.77 32.38C624.545 30.8449 628.596 30.1028 632.67 30.2C641.103 30.2 647.323 33.3433 651.33 39.63C655.337 45.9167 656.927 54.3967 656.1 65.07C654.987 79.33 650.62 91.77 643 102.39C635.38 113.01 626.427 118.32 616.14 118.32C605.64 118.32 598.047 113.883 593.36 105.01L581.72 148.36H552.93L584.32 32.1H610.9L608.82 40.58L609.08 40.89Z" fill="white"/>
<path fill-rule="evenodd" clip-rule="evenodd" d="M706.53 0L675.42 116.18H646.52L677.7 0H706.53Z" fill="white"/>
<path fill-rule="evenodd" clip-rule="evenodd" d="M786.7 32.1L731.7 126.88C726.307 136.133 721.357 142.34 716.85 145.5C712.12 148.738 706.49 150.403 700.76 150.26C693.69 150.26 686.662 149.161 679.93 147L683.93 125.29C686.818 126.648 689.969 127.351 693.16 127.35C698.767 127.35 703.487 123.623 707.32 116.17L699.5 32.1H727.84L727.31 90.51H727.59L757.66 32.1H786.7Z" fill="white"/>
<path d="M32.6001 80.27L0.410068 146.21C0.126431 146.791 -0.0209961 147.429 -0.0209961 148.075C-0.0209961 148.721 0.126431 149.359 0.410068 149.94C0.650113 150.474 1.04125 150.926 1.53525 151.241C2.02925 151.555 2.6045 151.719 3.19007 151.71L301.19 139.22C302.073 139.098 302.876 138.642 303.434 137.947C303.992 137.251 304.262 136.369 304.19 135.48C304.24 134.593 303.944 133.72 303.364 133.047C302.784 132.373 301.965 131.951 301.08 131.87H24.5601C25.9101 127.09 38.2601 83.26 38.2601 83.26L38.4201 82.11C38.4416 81.4366 38.2822 80.7698 37.9586 80.1789C37.635 79.588 37.159 79.0945 36.5801 78.75C36.2206 78.5689 35.8274 78.4647 35.4254 78.4439C35.0235 78.423 34.6216 78.4861 34.2453 78.6291C33.8691 78.7721 33.5267 78.9918 33.24 79.2743C32.9533 79.5568 32.7286 79.8959 32.5801 80.27H32.6001Z" fill="white"/>
<path d="M319.87 281.57L324.87 252.29H334.87C336.195 252.211 337.52 252.454 338.73 253C339.674 253.585 340.423 254.438 340.88 255.45C341.49 256.694 341.795 258.065 341.77 259.45C341.773 261.414 341.282 263.347 340.34 265.07C339.56 266.673 338.244 267.954 336.62 268.69C334.854 269.385 332.968 269.725 331.07 269.69H325.07L323.07 281.58L319.87 281.57ZM325.69 266.37H331C332.468 266.448 333.935 266.206 335.3 265.66C336.319 265.122 337.152 264.289 337.69 263.27C338.349 262.16 338.695 260.891 338.69 259.6C338.726 258.752 338.555 257.907 338.19 257.14C337.898 256.568 337.423 256.11 336.84 255.84C335.841 255.532 334.794 255.406 333.75 255.47H327.63L325.69 266.37Z" fill="white"/>
<path d="M343.33 281.57L348.33 252.29H351.57L347.11 278.29H359.78L359.22 281.61L343.33 281.57Z" fill="white"/>
<path d="M369.09 252.29H372.29L369.23 270.29C369.021 271.392 368.894 272.509 368.85 273.63C368.828 274.322 368.95 275.01 369.209 275.652C369.467 276.294 369.856 276.876 370.35 277.36C370.858 277.855 371.461 278.241 372.123 278.496C372.785 278.75 373.492 278.867 374.2 278.84C375.19 278.858 376.169 278.635 377.054 278.191C377.939 277.746 378.703 277.094 379.28 276.29C380.28 274.957 381.117 272.333 381.79 268.42L384.55 252.3H387.77L384.83 269.48C384.49 272.092 383.719 274.63 382.55 276.99C381.721 278.549 380.497 279.863 379 280.8C377.586 281.653 375.961 282.093 374.31 282.07C373.158 282.131 372.005 281.959 370.92 281.564C369.836 281.169 368.843 280.558 368 279.77C367.211 278.951 366.599 277.98 366.2 276.915C365.801 275.85 365.624 274.715 365.68 273.58C365.771 271.796 365.995 270.021 366.35 268.27L369.09 252.29Z" fill="white"/>
<path d="M389.88 281.57L394.74 252.29H398.67L401.22 271.29C401.56 273.81 401.77 276.2 401.87 278.46C402.55 276.46 403.65 273.81 405.19 270.46L413.57 252.33H417.57L412.82 281.61H409.67L412 267.33C412.56 264.03 413.353 260.34 414.38 256.26C413.713 258.173 412.86 260.227 411.82 262.42L403 281.57H399.91L397.38 262.8C397.16 261.14 396.99 259.14 396.88 256.8C396.633 259.293 396.383 261.33 396.13 262.91L393 281.57H389.88Z" fill="white"/>
<path d="M419.25 281.57L424.25 252.29H431.68C433.03 252.233 434.381 252.395 435.68 252.77C436.925 253.176 437.987 254.008 438.68 255.12C439.397 256.386 439.743 257.827 439.68 259.28C439.72 260.781 439.331 262.262 438.56 263.55C437.773 264.791 436.615 265.754 435.25 266.3C436.43 266.741 437.441 267.542 438.14 268.59C438.832 269.705 439.18 270.999 439.14 272.31C439.144 273.969 438.731 275.602 437.94 277.06C437.234 278.436 436.175 279.6 434.87 280.43C433.648 281.187 432.237 281.582 430.8 281.57H419.25ZM423.04 278.25H428.5C429.46 278.283 430.42 278.23 431.37 278.09C432.183 277.926 432.957 277.607 433.65 277.15C434.363 276.644 434.923 275.952 435.27 275.15C435.702 274.263 435.921 273.287 435.91 272.3C435.963 271.718 435.89 271.131 435.697 270.578C435.504 270.026 435.195 269.522 434.79 269.1C434.05 268.42 432.74 268.1 430.87 268.1H424.77L423.04 278.25ZM425.34 264.81H430.21C432.55 264.81 434.17 264.403 435.07 263.59C435.625 263.06 436.06 262.417 436.346 261.704C436.633 260.992 436.763 260.227 436.73 259.46C436.75 258.688 436.571 257.923 436.21 257.24C435.916 256.698 435.457 256.264 434.9 256C433.969 255.692 432.988 255.567 432.01 255.63H426.92L425.34 264.81Z" fill="white"/>
<path d="M443.38 281.57L448.38 252.29H451.6L446.6 281.57H443.38Z" fill="white"/>
<path d="M454.3 281.57L459.3 252.29H462.43L466.43 263.29C467.61 266.52 468.54 269.23 469.21 271.4C469.69 272.913 470.203 274.823 470.75 277.13C471.06 274.62 471.43 272.07 471.85 269.5L474.85 252.29H477.96L472.96 281.57H469.79L463.87 264.67C462.87 261.67 462 259.02 461.41 256.76C461.26 258.67 460.95 261 460.48 263.76L457.48 281.56L454.3 281.57Z" fill="white"/>
<path d="M492.22 270L492.78 266.69H503.3L501.3 278.61C499.9 279.685 498.341 280.535 496.68 281.13C495.112 281.717 493.454 282.029 491.78 282.05C488.38 282.05 485.87 280.89 484.23 278.58C482.511 275.991 481.654 272.925 481.78 269.82C481.731 266.503 482.389 263.213 483.71 260.17C484.725 257.655 486.396 255.459 488.55 253.81C490.422 252.483 492.666 251.783 494.96 251.81C496.232 251.767 497.498 252.004 498.668 252.505C499.838 253.007 500.884 253.759 501.73 254.71C503.129 256.488 503.993 258.629 504.22 260.88L501.07 261.3C500.881 259.545 500.127 257.898 498.92 256.61C498.376 256.079 497.732 255.662 497.024 255.386C496.316 255.109 495.56 254.978 494.8 255C493.077 255.013 491.406 255.597 490.05 256.66C488.397 258.003 487.139 259.769 486.41 261.77C485.412 264.351 484.93 267.103 484.99 269.87C484.99 272.903 485.603 275.15 486.83 276.61C487.419 277.328 488.166 277.899 489.012 278.279C489.859 278.659 490.783 278.837 491.71 278.8C494.155 278.67 496.502 277.79 498.43 276.28L499.51 269.99L492.22 270Z" fill="white"/>
<path d="M533.74 278.71C532.699 279.824 531.492 280.768 530.16 281.51C529.176 281.977 528.099 282.216 527.01 282.21C526.029 282.232 525.055 282.04 524.155 281.648C523.256 281.256 522.452 280.673 521.8 279.94C520.369 278.279 519.631 276.13 519.74 273.94C519.662 271.938 520.214 269.961 521.32 268.29C522.563 266.606 524.183 265.236 526.05 264.29C525.66 263.272 525.326 262.234 525.05 261.18C524.889 260.404 524.808 259.613 524.81 258.82C524.799 257.044 525.391 255.316 526.49 253.92C526.984 253.23 527.638 252.67 528.395 252.289C529.153 251.907 529.992 251.716 530.84 251.73C531.529 251.715 532.214 251.848 532.847 252.121C533.48 252.394 534.047 252.799 534.51 253.31C535.504 254.419 536.027 255.872 535.97 257.36C535.953 258.793 535.503 260.187 534.68 261.36C533.405 262.995 531.813 264.355 530 265.36C531.167 268.051 532.545 270.646 534.12 273.12C535.001 271.796 535.77 270.401 536.42 268.95L538.99 270.57C538.218 272.497 537.21 274.321 535.99 276C536.75 277.173 537.677 278.507 538.77 280L536.53 282.17C535.481 281.118 534.545 279.959 533.74 278.71ZM532 275.92C530.195 273.126 528.607 270.197 527.25 267.16C526.022 267.789 524.922 268.644 524.01 269.68C523.166 270.789 522.716 272.147 522.73 273.54C522.674 274.954 523.141 276.338 524.04 277.43C524.403 277.9 524.868 278.281 525.4 278.544C525.932 278.807 526.517 278.946 527.11 278.95C528.763 278.983 530.393 277.973 532 275.92ZM528.84 262.75C531.63 261.03 533.02 259.28 533.02 257.48C533.043 256.753 532.802 256.042 532.34 255.48C532.149 255.239 531.906 255.043 531.629 254.908C531.352 254.773 531.048 254.702 530.74 254.7C530.346 254.717 529.96 254.823 529.613 255.012C529.267 255.201 528.968 255.467 528.74 255.79C528.138 256.566 527.827 257.528 527.86 258.51C527.911 259.975 528.251 261.416 528.86 262.75H528.84Z" fill="white"/>
<path d="M553.6 281.57L558.46 252.29H562.4L564.95 271.29C565.277 273.81 565.493 276.2 565.6 278.46C566.27 276.46 567.38 273.81 568.91 270.46L577.3 252.33H581.3L576.55 281.61H573.4L575.78 267.37C576.34 264.07 577.137 260.38 578.17 256.3C577.503 258.213 576.647 260.267 575.6 262.46L566.72 281.61H563.63L561.1 262.84C560.87 261.18 560.71 259.18 560.59 256.84C560.35 259.333 560.1 261.37 559.84 262.95L556.74 281.63L553.6 281.57Z" fill="white"/>
<path d="M583.14 281.57L588.14 252.29H605.38L604.82 255.6H590.82L589.25 264.75H602.9L602.34 268.07H588.67L586.93 278.25H601.93L601.36 281.57H583.14Z" fill="white"/>
<path d="M625.7 271.26L628.87 271.8C628.155 274.741 626.614 277.416 624.43 279.51C622.692 281.134 620.408 282.047 618.03 282.07C616.715 282.109 615.409 281.842 614.215 281.29C613.021 280.739 611.972 279.917 611.15 278.89C609.403 276.77 608.527 273.643 608.52 269.51C608.378 265.183 609.527 260.912 611.82 257.24C614.2 253.613 617.28 251.797 621.06 251.79C622.184 251.76 623.303 251.96 624.349 252.376C625.394 252.792 626.343 253.416 627.14 254.21C628.888 256.05 629.904 258.464 630 261L627 261.34C626.333 257.113 624.397 255 621.19 255C618.37 255 616.09 256.44 614.35 259.32C612.551 262.423 611.648 265.964 611.74 269.55C611.74 272.62 612.35 274.92 613.59 276.48C614.132 277.21 614.84 277.801 615.656 278.204C616.471 278.608 617.37 278.812 618.28 278.8C619.073 278.803 619.858 278.649 620.591 278.347C621.324 278.045 621.99 277.601 622.55 277.04C624.134 275.456 625.227 273.449 625.7 271.26Z" fill="white"/>
<path d="M632.68 281.57L637.68 252.29H640.9L638.82 264.45H651.25L653.33 252.29H656.56L651.56 281.57H648.34L650.7 267.77H638.27L635.91 281.57H632.68Z" fill="white"/>
<path d="M656.43 281.57L670.05 252.29H673.82L677.82 281.57H674.7L673.55 273.14H663.8L659.94 281.57H656.43ZM665.18 270.12H673.11L672.19 262.77C671.84 259.87 671.61 257.44 671.52 255.48C670.841 257.523 670.046 259.527 669.14 261.48L665.18 270.12Z" fill="white"/>
<path d="M682.67 281.57L687.67 252.29H690.8L694.8 263.29C695.98 266.52 696.91 269.23 697.58 271.4C698.06 272.913 698.573 274.823 699.12 277.13C699.43 274.62 699.8 272.07 700.22 269.5L703.22 252.29H706.33L701.33 281.57H698.16L692.24 264.67C691.19 261.67 690.37 259.02 689.78 256.76C689.63 258.67 689.32 261 688.85 263.76L685.85 281.56L682.67 281.57Z" fill="white"/>
<path d="M708.47 281.57L713.47 252.29H716.69L711.69 281.57H708.47Z" fill="white"/>
<path d="M738 271.26L741.18 271.8C740.465 274.741 738.924 277.416 736.74 279.51C735.002 281.134 732.718 282.047 730.34 282.07C729.025 282.109 727.719 281.842 726.525 281.29C725.331 280.738 724.282 279.917 723.46 278.89C721.7 276.77 720.823 273.643 720.83 269.51C720.69 265.185 721.835 260.915 724.12 257.24C726.507 253.613 729.59 251.797 733.37 251.79C734.494 251.761 735.613 251.961 736.658 252.377C737.703 252.793 738.653 253.417 739.45 254.21C741.187 256.055 742.193 258.468 742.28 261L739.28 261.34C738.66 257.133 736.733 255.03 733.5 255.03C730.68 255.03 728.4 256.47 726.66 259.35C724.844 262.448 723.923 265.99 724 269.58C724 272.65 724.62 274.95 725.86 276.51C726.402 277.241 727.11 277.832 727.925 278.235C728.741 278.639 729.64 278.843 730.55 278.83C731.342 278.836 732.126 278.683 732.858 278.381C733.59 278.079 734.253 277.633 734.81 277.07C736.42 275.488 737.53 273.468 738 271.26Z" fill="white"/>
<path d="M742.92 281.57L756.54 252.29H760.31L764.31 281.57H761.2L760 273.14H750.27L746.42 281.57H742.92ZM751.67 270.12H759.6L758.68 262.77C758.32 259.87 758.1 257.44 758 255.48C757.33 257.527 756.535 259.53 755.62 261.48L751.67 270.12Z" fill="white"/>
<path d="M768.66 281.57L773.66 252.29H776.9L772.43 278.29H785.1L784.54 281.61L768.66 281.57Z" fill="white"/>
<path d="M408.41 200.22C408.436 196.748 409 193.3 410.08 190C411.493 185.513 413.583 182.107 416.35 179.78C419.027 177.495 422.441 176.259 425.96 176.3C427.742 176.259 429.51 176.627 431.129 177.374C432.748 178.12 434.174 179.227 435.3 180.61C437.753 183.483 438.977 187.397 438.97 192.35C439.015 196.635 438.121 200.878 436.35 204.78C434.961 208.109 432.71 211.008 429.83 213.18C427.329 214.963 424.331 215.914 421.26 215.9C419.576 215.967 417.899 215.649 416.356 214.97C414.814 214.29 413.447 213.268 412.36 211.98C409.651 208.674 408.245 204.491 408.41 200.22ZM414.81 200.06C414.683 202.485 415.42 204.877 416.89 206.81C417.481 207.59 418.244 208.222 419.121 208.657C419.997 209.093 420.962 209.32 421.94 209.32C423.695 209.264 425.376 208.603 426.7 207.45C428.558 205.766 429.961 203.64 430.78 201.27C431.922 198.504 432.513 195.542 432.52 192.55C432.672 189.939 431.915 187.357 430.38 185.24C429.802 184.485 429.052 183.878 428.193 183.469C427.334 183.061 426.391 182.862 425.44 182.89C423.649 182.953 421.934 183.627 420.58 184.8C418.716 186.451 417.31 188.555 416.5 190.91C415.352 193.823 414.779 196.93 414.81 200.06Z" fill="white"/>
<path d="M450.25 215.25L456.8 177H478.8L477.7 183.4H462.16L460.59 192.59H475.76L474.67 198.99H459.48L456.68 215.29L450.25 215.25Z" fill="white"/>
<path d="M529.84 198.15H517.77L514.83 215.25H508.39L515 177H521.46L518.92 191.79H530.98L533.46 177H539.9L533.35 215.29H526.91L529.84 198.15Z" fill="white"/>
<path d="M551.5 200.22C551.527 196.748 552.09 193.3 553.17 190C554.583 185.513 556.673 182.107 559.44 179.78C562.116 177.494 565.531 176.257 569.05 176.3C570.832 176.26 572.6 176.628 574.219 177.375C575.837 178.121 577.264 179.228 578.39 180.61C580.843 183.483 582.067 187.397 582.06 192.35C582.105 196.635 581.211 200.878 579.44 204.78C578.051 208.109 575.8 211.008 572.92 213.18C570.418 214.961 567.421 215.913 564.35 215.9C562.666 215.967 560.989 215.649 559.446 214.97C557.904 214.29 556.537 213.268 555.45 211.98C552.741 208.674 551.336 204.491 551.5 200.22ZM557.9 200.06C557.773 202.485 558.51 204.877 559.98 206.81C560.566 207.583 561.321 208.211 562.188 208.646C563.055 209.081 564.01 209.312 564.98 209.32C566.732 209.265 568.411 208.604 569.73 207.45C571.591 205.767 572.998 203.641 573.82 201.27C574.962 198.504 575.553 195.542 575.56 192.55C575.712 189.939 574.956 187.357 573.42 185.24C572.842 184.485 572.092 183.878 571.233 183.469C570.375 183.061 569.431 182.862 568.48 182.89C566.689 182.949 564.972 183.623 563.62 184.8C561.756 186.451 560.35 188.555 559.54 190.91C558.41 193.826 557.853 196.933 557.9 200.06Z" fill="white"/>
<path d="M599.56 177H606L602.47 197.8L601.61 202.8C601.546 203.23 601.512 203.665 601.51 204.1C601.449 204.802 601.543 205.508 601.783 206.17C602.024 206.832 602.406 207.433 602.903 207.932C603.4 208.431 604 208.816 604.661 209.059C605.322 209.302 606.028 209.398 606.73 209.34C608.008 209.368 609.267 209.02 610.35 208.34C611.417 207.594 612.241 206.55 612.72 205.34C613.577 202.916 614.177 200.409 614.51 197.86L618.27 177H624.71L621 197.86C620.546 201.072 619.772 204.231 618.69 207.29C617.762 209.864 616.109 212.115 613.93 213.77C611.723 215.258 609.1 216.007 606.44 215.91C604.929 215.991 603.417 215.752 602.004 215.209C600.591 214.666 599.309 213.832 598.24 212.76C596.24 210.66 595.24 207.76 595.24 204.18C595.382 201.812 595.686 199.457 596.15 197.13L599.56 177Z" fill="white"/>
<path d="M635.37 202.85L641.51 202.45C641.486 203.911 641.727 205.364 642.22 206.74C642.626 207.563 643.295 208.228 644.12 208.63C645.259 209.14 646.503 209.376 647.75 209.32C649.351 209.441 650.942 208.979 652.23 208.02C652.723 207.601 653.116 207.075 653.377 206.483C653.639 205.891 653.763 205.247 653.74 204.6C653.764 203.67 653.455 202.763 652.87 202.04C651.551 200.824 650.045 199.828 648.41 199.09C646.261 198.044 644.226 196.777 642.34 195.31C641.32 194.397 640.521 193.266 640 192C639.431 190.58 639.152 189.06 639.18 187.53C639.106 186.037 639.334 184.544 639.849 183.14C640.364 181.736 641.157 180.451 642.18 179.36C643.265 178.316 644.552 177.506 645.963 176.979C647.373 176.453 648.876 176.222 650.38 176.3C651.909 176.219 653.439 176.443 654.881 176.958C656.323 177.473 657.648 178.269 658.78 179.3C660.88 181.3 662.033 184.153 662.24 187.86L656.05 188.17C655.74 184.39 653.83 182.5 650.34 182.5C648.979 182.385 647.624 182.773 646.53 183.59C646.118 183.969 645.796 184.435 645.587 184.954C645.378 185.473 645.286 186.031 645.32 186.59C645.3 187.112 645.393 187.632 645.591 188.115C645.789 188.598 646.089 189.033 646.47 189.39C647.871 190.54 649.401 191.523 651.03 192.32C653.15 193.344 655.16 194.58 657.03 196.01C658.028 196.903 658.811 198.011 659.32 199.25C659.87 200.63 660.142 202.105 660.12 203.59C660.181 205.223 659.909 206.85 659.319 208.374C658.729 209.897 657.835 211.284 656.69 212.45C655.503 213.605 654.092 214.506 652.545 215.098C650.997 215.689 649.345 215.959 647.69 215.89C645.163 215.962 642.664 215.336 640.47 214.08C638.583 213.015 637.137 211.313 636.39 209.28C635.657 207.218 635.311 205.038 635.37 202.85Z" fill="white"/>
<path d="M686.86 215.25H680.42L685.91 183.36H676.48L677.57 176.96H702.52L701.42 183.36H692.35L686.86 215.25Z" fill="white"/>
<path d="M710.68 200.22C710.707 196.748 711.27 193.3 712.35 190C713.757 185.513 715.847 182.107 718.62 179.78C721.296 177.494 724.711 176.257 728.23 176.3C730.012 176.26 731.78 176.628 733.399 177.375C735.017 178.121 736.444 179.228 737.57 180.61C740.017 183.483 741.24 187.397 741.24 192.35C741.281 196.636 740.384 200.878 738.61 204.78C737.224 208.108 734.977 211.008 732.1 213.18C729.598 214.961 726.601 215.913 723.53 215.9C721.845 215.968 720.166 215.65 718.622 214.971C717.077 214.292 715.709 213.269 714.62 211.98C711.913 208.673 710.512 204.49 710.68 200.22ZM717.08 200.06C716.953 202.485 717.69 204.877 719.16 206.81C719.751 207.59 720.514 208.223 721.39 208.658C722.266 209.094 723.232 209.32 724.21 209.32C725.962 209.265 727.641 208.604 728.96 207.45C730.821 205.767 732.228 203.641 733.05 201.27C734.192 198.504 734.783 195.542 734.79 192.55C734.938 189.94 734.182 187.359 732.65 185.24C732.072 184.485 731.322 183.878 730.463 183.469C729.605 183.061 728.661 182.862 727.71 182.89C725.919 182.949 724.202 183.623 722.85 184.8C720.985 186.452 719.577 188.556 718.76 190.91C717.621 193.825 717.05 196.931 717.08 200.06Z" fill="white"/>
<path d="M777.41 215.25H771.41L762.94 189.53L758.54 215.25H752.54L759.06 177H765.06L773.53 202.63L778 177H784L777.41 215.25Z" fill="white"/>
</g>
<defs>
<clipPath id="clip0_433_517">
<rect width="786.7" height="282.27" fill="white"/>
</clipPath>
</defs>
</svg>
