<svg version="1.1" id="Layer_1" xmlns="http://www.w3.org/2000/svg" xmlns:xlink="http://www.w3.org/1999/xlink" x="0px" y="0px" viewBox="0 0 339.8 41.1" style="enable-background:new 0 0 339.8 41.1;" xml:space="preserve">
 <style type="text/css">
  .st0{fill:#00446B;}
 </style>
 <g>
  <path class="st0" d="M19.6,30.3v-9.8C8.8,20.6,0,29.3,0,40.1h9.8C9.8,34.7,14.2,30.3,19.6,30.3L19.6,30.3z M29,18.1
		c0.2,0.8,0.3,1.6,0.3,2.4c0,5.4-4.4,9.8-9.8,9.8h0v9.8h0.1c10.7-0.1,19.4-8.8,19.4-19.6c0-0.8-0.1-1.6-0.2-2.4H29z M10.1,23
		c-0.2-0.8-0.3-1.6-0.3-2.4c0-5.4,4.4-9.8,9.8-9.8V1h-0.1C8.7,1.1,0,9.8,0,20.6c0,0.8,0.1,1.6,0.2,2.4H10.1z M19.6,20.6v-9.8
		c5.4,0,9.8-4.4,9.8-9.8h9.8C39.1,11.8,30.4,20.6,19.6,20.6z">
  </path>
  <path class="st0" d="M48.9,40.1h10.4V25.9h15.5v-8.8H59.3V9.8h16.4V1H48.9V40.1z M91.3,24.6h16.7v-8.7H91.3V9.6H109V1H81v39.1h28.3
		v-8.7h-18V24.6z M212.3,24.3c0,2.6-0.5,4.6-1.4,5.9c-0.9,1.3-2.5,1.9-4.7,1.9c-2.2,0-3.7-0.6-4.7-1.9c-0.9-1.3-1.4-3.2-1.4-5.9V1
		h-10.5v22.9c0,3,0.4,5.6,1.1,7.8c0.7,2.2,1.8,4,3.2,5.3c1.4,1.4,3.1,2.4,5.2,3.1c2,0.7,4.4,1,7,1c2.6,0,4.9-0.3,7-1
		c2.1-0.7,3.8-1.7,5.2-3.1c1.4-1.4,2.5-3.2,3.3-5.3c0.8-2.2,1.2-4.8,1.2-7.8V1h-10.5V24.3z M247.6,16.2l-5.3-1
		c-1.5-0.3-2.6-0.7-3.3-1.3c-0.7-0.5-1-1.3-1-2.2c0-1,0.4-1.8,1.3-2.4c0.9-0.6,2.2-0.9,4-0.9c2,0,3.4,0.4,4.4,1.2
		c0.9,0.8,1.6,1.9,1.9,3.5c0,0,0,0,0,0h10.3c-0.4-5.8-3-8.3-4.3-9.4c-1.3-1.1-2.9-2-4.9-2.6c-2-0.7-4.4-1-7.3-1
		c-4.9,0-8.7,1-11.5,3.1c-2.8,2.1-4.2,5.1-4.2,9.2c0,3.4,1,6,3.1,7.9c2.1,1.9,5.3,3.3,9.6,4.1l5.2,1c1.6,0.3,2.8,0.8,3.4,1.4
		c0.6,0.6,0.9,1.4,0.9,2.3c0,1.2-0.5,2.1-1.4,2.8c-0.9,0.7-2.3,1-4.2,1c-2.2,0-3.9-0.4-5-1.3c-1.1-0.9-1.8-2.3-2-4.1h-10.5
		c0.5,9.2,6.2,13.8,17.1,13.9c2.8,0,5.3-0.3,7.3-0.9c2.1-0.6,3.8-1.5,5.2-2.6c1.3-1.1,2.4-2.5,3-4c0.7-1.6,1-3.3,1-5.3
		c0-3.1-1-5.7-2.9-7.7C255.5,18.6,252.2,17.1,247.6,16.2z M291.1,20.6c0-3.8-0.7-6.6-2.1-8.6c-1.4-2-3.5-2.9-6.3-2.9
		c-2.8,0-4.9,1-6.3,2.9c-1.4,2-2.1,4.8-2.1,8.6c0,3.8,0.7,6.6,2.1,8.6c1.4,2,3.5,2.9,6.3,2.9c2.8,0,4.9-1,6.3-2.9
		C290.4,27.2,291.1,24.3,291.1,20.6z M300.8,11.9c0.8,2.5,1.3,5.4,1.3,8.5c0,3.2-0.4,6-1.3,8.6c-0.9,2.6-2.1,4.7-3.8,6.5
		c-1.6,1.8-3.7,3.2-6.1,4.1c-2.4,1-5.2,1.5-8.3,1.5c-3.1,0-5.8-0.5-8.2-1.4c-2.4-0.9-4.4-2.3-6-4.1c-1.6-1.8-2.9-3.9-3.7-6.4
		c-0.8-2.5-1.3-5.4-1.3-8.5c0-3.2,0.4-6,1.3-8.6c0.9-2.6,2.1-4.7,3.8-6.5c1.6-1.8,3.7-3.2,6.1-4.1c2.4-1,5.2-1.5,8.3-1.5
		c3.1,0,5.8,0.5,8.2,1.4c2.4,1,4.4,2.3,6,4.1C298.7,7.2,299.9,9.4,300.8,11.9z M146.1,13.9c0-3.9-1.5-7-3.9-9.4
		c-2.5-2.3-5.7-3.6-11.1-3.6h-16.7v39.1h10v-31h6.2c3.4,0,5.4,1.6,5.4,4.7c0,3.1-2,4.8-5.4,4.8h-6.2l12.3,21.5h11.2l-9.1-15.2
		C143.3,23,146.1,19.1,146.1,13.9z M329.9,1v22.4L317.1,1h-10.5v39.1h9.9V17.8l12.8,22.4h10.5V1H329.9z M169,17.8H185v17.8
		c-1.9,1.6-4.3,2.9-7.2,3.9c-2.9,1.1-6.1,1.6-9.5,1.6c-3.3,0-6.1-0.5-8.5-1.5c-2.4-1-4.4-2.3-6-4.1c-1.6-1.8-2.8-3.9-3.6-6.4
		c-0.8-2.5-1.2-5.3-1.2-8.4c0-3.3,0.4-6.2,1.3-8.7c0.9-2.6,2.1-4.7,3.7-6.5c1.6-1.8,3.6-3.1,5.9-4.1C162.3,0.5,165,0,168,0
		c2.6,0,4.9,0.3,6.9,1c1.9,0.7,3.6,1.6,4.9,2.8c1.4,1.2,2.4,2.5,3.2,4.1c1,1.9,1.5,4.3,1.8,5.9H174c-0.4-1.7-1.1-2.9-2-3.7
		c-1-0.8-2.3-1.2-4.1-1.2c-2.7,0-4.8,1-6.1,2.9c-1.3,1.9-1.9,4.8-1.9,8.7c0,3.9,0.7,6.8,2.1,8.8c1.4,2,3.8,2.9,7.1,2.9
		c2.3,0,4.4-0.5,6.1-1.4v-4.5H169V17.8z">
  </path>
 </g>
</svg>