<svg width="340" height="42" viewBox="0 0 340 42" fill="none" xmlns="http://www.w3.org/2000/svg">
<g clip-path="url(#clip0_433_557)">
<path d="M19.6 30.3V20.5C8.8 20.6 0 29.3 0 40.1H9.8C9.8 34.7 14.2 30.3 19.6 30.3ZM29 18.1C29.2 18.9 29.3 19.7 29.3 20.5C29.3 25.9 24.9 30.3 19.5 30.3V40.1H19.6C30.3 40 39 31.3 39 20.5C39 19.7 38.9 18.9 38.8 18.1H29ZM10.1 23C9.9 22.2 9.8 21.4 9.8 20.6C9.8 15.2 14.2 10.8 19.6 10.8V1H19.5C8.7 1.1 0 9.8 0 20.6C0 21.4 0.1 22.2 0.2 23H10.1ZM19.6 20.6V10.8C25 10.8 29.4 6.4 29.4 1H39.2C39.1 11.8 30.4 20.6 19.6 20.6Z" fill="white"/>
<path d="M48.8999 40.1H59.2999V25.9H74.7999V17.1H59.2999V9.8H75.6999V1H48.8999V40.1ZM91.2999 24.6H108V15.9H91.2999V9.6H109V1H80.9999V40.1H109.3V31.4H91.2999V24.6ZM212.3 24.3C212.3 26.9 211.8 28.9 210.9 30.2C210 31.5 208.4 32.1 206.2 32.1C204 32.1 202.5 31.5 201.5 30.2C200.6 28.9 200.1 27 200.1 24.3V1H189.6V23.9C189.6 26.9 190 29.5 190.7 31.7C191.4 33.9 192.5 35.7 193.9 37C195.3 38.4 197 39.4 199.1 40.1C201.1 40.8 203.5 41.1 206.1 41.1C208.7 41.1 211 40.8 213.1 40.1C215.2 39.4 216.9 38.4 218.3 37C219.7 35.6 220.8 33.8 221.6 31.7C222.4 29.5 222.8 26.9 222.8 23.9V1H212.3V24.3ZM247.6 16.2L242.3 15.2C240.8 14.9 239.7 14.5 239 13.9C238.3 13.4 238 12.6 238 11.7C238 10.7 238.4 9.9 239.3 9.3C240.2 8.7 241.5 8.4 243.3 8.4C245.3 8.4 246.7 8.8 247.7 9.6C248.6 10.4 249.3 11.5 249.6 13.1H259.9C259.5 7.3 256.9 4.8 255.6 3.7C254.3 2.6 252.7 1.7 250.7 1.1C248.7 0.4 246.3 0.1 243.4 0.1C238.5 0.1 234.7 1.1 231.9 3.2C229.1 5.3 227.7 8.3 227.7 12.4C227.7 15.8 228.7 18.4 230.8 20.3C232.9 22.2 236.1 23.6 240.4 24.4L245.6 25.4C247.2 25.7 248.4 26.2 249 26.8C249.6 27.4 249.9 28.2 249.9 29.1C249.9 30.3 249.4 31.2 248.5 31.9C247.6 32.6 246.2 32.9 244.3 32.9C242.1 32.9 240.4 32.5 239.3 31.6C238.2 30.7 237.5 29.3 237.3 27.5H226.8C227.3 36.7 233 41.3 243.9 41.4C246.7 41.4 249.2 41.1 251.2 40.5C253.3 39.9 255 39 256.4 37.9C257.7 36.8 258.8 35.4 259.4 33.9C260.1 32.3 260.4 30.6 260.4 28.6C260.4 25.5 259.4 22.9 257.5 20.9C255.5 18.6 252.2 17.1 247.6 16.2ZM291.1 20.6C291.1 16.8 290.4 14 289 12C287.6 10 285.5 9.1 282.7 9.1C279.9 9.1 277.8 10.1 276.4 12C275 14 274.3 16.8 274.3 20.6C274.3 24.4 275 27.2 276.4 29.2C277.8 31.2 279.9 32.1 282.7 32.1C285.5 32.1 287.6 31.1 289 29.2C290.4 27.2 291.1 24.3 291.1 20.6ZM300.8 11.9C301.6 14.4 302.1 17.3 302.1 20.4C302.1 23.6 301.7 26.4 300.8 29C299.9 31.6 298.7 33.7 297 35.5C295.4 37.3 293.3 38.7 290.9 39.6C288.5 40.6 285.7 41.1 282.6 41.1C279.5 41.1 276.8 40.6 274.4 39.7C272 38.8 270 37.4 268.4 35.6C266.8 33.8 265.5 31.7 264.7 29.2C263.9 26.7 263.4 23.8 263.4 20.7C263.4 17.5 263.8 14.7 264.7 12.1C265.6 9.5 266.8 7.4 268.5 5.6C270.1 3.8 272.2 2.4 274.6 1.5C277 0.5 279.8 0 282.9 0C286 0 288.7 0.5 291.1 1.4C293.5 2.4 295.5 3.7 297.1 5.5C298.7 7.2 299.9 9.4 300.8 11.9ZM146.1 13.9C146.1 10 144.6 6.9 142.2 4.5C139.7 2.2 136.5 0.9 131.1 0.9H114.4V40H124.4V9H130.6C134 9 136 10.6 136 13.7C136 16.8 134 18.5 130.6 18.5H124.4L136.7 40H147.9L138.8 24.8C143.3 23 146.1 19.1 146.1 13.9ZM329.9 1V23.4L317.1 1H306.6V40.1H316.5V17.8L329.3 40.2H339.8V1H329.9ZM169 17.8H185V35.6C183.1 37.2 180.7 38.5 177.8 39.5C174.9 40.6 171.7 41.1 168.3 41.1C165 41.1 162.2 40.6 159.8 39.6C157.4 38.6 155.4 37.3 153.8 35.5C152.2 33.7 151 31.6 150.2 29.1C149.4 26.6 149 23.8 149 20.7C149 17.4 149.4 14.5 150.3 12C151.2 9.4 152.4 7.3 154 5.5C155.6 3.7 157.6 2.4 159.9 1.4C162.3 0.5 165 0 168 0C170.6 0 172.9 0.3 174.9 1C176.8 1.7 178.5 2.6 179.8 3.8C181.2 5 182.2 6.3 183 7.9C184 9.8 184.5 12.2 184.8 13.8H174C173.6 12.1 172.9 10.9 172 10.1C171 9.3 169.7 8.9 167.9 8.9C165.2 8.9 163.1 9.9 161.8 11.8C160.5 13.7 159.9 16.6 159.9 20.5C159.9 24.4 160.6 27.3 162 29.3C163.4 31.3 165.8 32.2 169.1 32.2C171.4 32.2 173.5 31.7 175.2 30.8V26.3H169V17.8Z" fill="white"/>
</g>
<defs>
<clipPath id="clip0_433_557">
<rect width="339.8" height="41.1" fill="white"/>
</clipPath>
</defs>
</svg>
