<svg width="113" height="24" viewBox="0 0 113 24" fill="none" xmlns="http://www.w3.org/2000/svg">
<g clip-path="url(#clip0_433_561)">
<path fill-rule="evenodd" clip-rule="evenodd" d="M41.9105 7.03936C44.535 7.03936 46.5797 7.75284 48.0436 9.17981C49.5081 10.6071 50.2399 12.5961 50.2399 15.1464C50.2399 16.4234 50.0454 17.5948 49.654 18.6657C49.264 19.7356 48.6781 20.6709 47.8974 21.4705C47.117 22.2712 46.1458 22.8925 44.9852 23.335C43.8242 23.7782 42.4637 24 40.9019 24C38.1899 24 36.1074 23.3242 34.6536 21.9733C33.201 20.6224 32.4743 18.7253 32.4743 16.2816C32.4743 14.9842 32.6856 13.774 33.1088 12.6496C33.5315 11.5263 34.1444 10.5476 34.9468 9.71528C35.7491 8.883 36.7372 8.22874 37.9079 7.75284C39.0797 7.27802 40.4132 7.03936 41.9105 7.03936ZM76.9301 7.03936C79.2301 7.03936 81.0353 7.68357 82.3479 8.96914C83.6609 10.2558 84.317 12.056 84.317 14.3687C84.317 14.5421 84.2954 14.7369 84.2514 14.9526L73.5789 15.1148C73.6444 16.1093 73.8338 16.9359 74.1486 17.5948C74.4626 18.2552 74.8648 18.7784 75.3524 19.1686C75.8407 19.5576 76.3881 19.8275 76.9956 19.9789C77.6024 20.1304 78.2318 20.2058 78.8822 20.2058C79.8585 20.2058 80.8077 20.0762 81.7303 19.8167C82.6518 19.5576 83.4592 19.222 84.1542 18.8111C84.0022 19.395 83.7253 19.9901 83.3242 20.5944C82.923 21.2003 82.4077 21.7573 81.7789 22.2651C81.1495 22.7729 80.4127 23.1896 79.5664 23.513C78.7205 23.8378 77.7763 24 76.7356 24C75.5858 24 74.4954 23.8428 73.4654 23.5298C72.4348 23.2162 71.5234 22.7302 70.7319 22.0702C69.9393 21.4109 69.3109 20.5787 68.8442 19.5734C68.3775 18.5678 68.1452 17.3633 68.1452 15.9582C68.1452 14.5309 68.3944 13.2612 68.8939 12.1468C69.3923 11.0335 70.0538 10.0993 70.8777 9.34239C71.702 8.58512 72.6404 8.01232 73.693 7.62328C74.7446 7.23424 75.8238 7.03936 76.9301 7.03936ZM103.472 0C103.428 1.25398 103.396 2.30303 103.374 3.14607C103.352 3.98947 103.336 4.78909 103.325 5.546C103.316 6.20766 103.31 6.6278 103.309 7.28751L103.31 11.8069C103.312 13.0194 103.317 14.088 103.325 15.0126C103.336 16.2019 103.363 17.2126 103.406 18.0449C103.45 18.8771 103.478 19.61 103.575 20.1394C103.672 20.6698 103.844 21.5387 104.018 21.8854C104.19 22.2306 104.522 22.7058 104.782 22.9542C105.042 23.2025 105.368 23.4459 105.758 23.6835C105.758 23.6835 104.516 23.6423 103.151 23.6187L102.738 23.6122C102.324 23.6064 101.91 23.6027 101.524 23.6027C99.7231 23.6027 98.493 23.6835 98.493 23.6835V20.307C98.1343 21.1199 97.6637 21.6065 97.1754 22.0824C96.6867 22.5576 96.1934 22.9366 95.6946 23.2176C95.1951 23.4986 94.6906 23.6978 94.1814 23.8173C93.6719 23.9361 93.1674 23.9957 92.669 23.9957C91.7791 23.9957 90.9333 23.8331 90.1309 23.5087C89.3275 23.1849 88.6286 22.6983 88.0319 22.0498C87.4348 21.4016 86.9584 20.5901 86.5997 19.6175C86.2425 18.6446 86.0635 17.5094 86.0635 16.2131C86.0635 14.7204 86.3019 13.4022 86.7794 12.2563C87.2562 11.1103 87.9235 10.1485 88.7805 9.37038C89.6376 8.59158 90.6452 8.00766 91.8062 7.61897C92.9668 7.22993 94.2311 7.03505 95.5974 7.03505C96.2261 7.03505 96.7681 7.07345 97.224 7.14882C97.6799 7.22491 98.0591 7.31607 98.363 7.42481C98.363 6.51645 98.3302 6.1292 98.2654 5.546C98.1999 4.96208 98.0749 4.46429 97.8913 4.05371C97.7065 3.64314 97.4465 3.28066 97.1098 2.96698C96.7742 2.65438 96.3342 2.32492 95.7922 1.97859L103.472 0ZM110.023 17.5137C110.899 17.5137 111.615 17.7958 112.169 18.3593C112.723 18.9231 113 19.6416 113 20.5159C113 20.9763 112.902 21.4127 112.706 21.8273C112.509 22.2411 112.25 22.5978 111.927 22.8964C111.603 23.1957 111.234 23.4315 110.819 23.6038C110.403 23.7764 109.976 23.8625 109.538 23.8625C108.66 23.8625 107.928 23.5869 107.339 23.0346C106.751 22.4826 106.456 21.7698 106.456 20.8956C106.456 20.4584 106.548 20.0385 106.733 19.6358C106.918 19.2335 107.171 18.8768 107.495 18.5663C107.818 18.2555 108.199 18.0025 108.638 17.8069C109.076 17.612 109.538 17.5137 110.023 17.5137ZM69.0185 7.3638C68.5406 7.86159 68.1394 8.35255 67.8139 8.83957C67.4891 9.32552 67.1635 9.90944 66.8376 10.5903C66.5128 11.2722 66.1596 12.0937 65.78 13.0555C65.4008 14.0173 64.9183 15.2117 64.3324 16.6391L61.4684 23.6436C61.2948 23.6863 61.0294 23.719 60.6722 23.7409C60.3136 23.7613 59.9502 23.7732 59.5818 23.7732C59.2779 23.7732 58.9902 23.7613 58.7201 23.7409C58.4478 23.719 58.2364 23.6863 58.0852 23.6436L54.4729 16.0225C53.8881 14.7904 53.3836 13.7205 52.9605 12.8118C52.5374 11.9045 52.1463 11.1099 51.7887 10.4288C51.4311 9.74686 51.0897 9.16401 50.7638 8.67735C50.4383 8.19141 50.0699 7.75284 49.6579 7.3638C50.2863 7.38569 50.883 7.40758 51.4473 7.42912C51.9457 7.45101 52.4502 7.46106 52.9605 7.46106H55.4816C56.0239 7.46106 56.5771 7.45101 57.141 7.42912C57.7924 7.42912 58.4756 7.41835 59.1915 7.39646C58.6264 7.82893 58.2037 8.21797 57.9224 8.56323C57.6405 8.90992 57.4997 9.30973 57.4997 9.76373C57.4997 10.0232 57.5422 10.315 57.6297 10.6398C57.7161 10.9632 57.8461 11.3425 58.02 11.7739C58.3236 12.5308 58.7687 13.5956 59.3546 14.9684C59.9394 16.3419 60.6661 18.0115 61.534 19.9789L63.0961 15.3417C63.4865 14.1954 63.79 13.2396 64.0065 12.4716C64.224 11.7046 64.3324 11.0504 64.3324 10.5092C64.3324 9.75296 64.1098 9.15935 63.6651 8.7258C63.2204 8.29405 62.4883 7.84005 61.4684 7.3638C62.0107 7.38569 62.543 7.40758 63.0633 7.42912C63.4973 7.45101 63.947 7.46106 64.4137 7.46106H66.7076C67.098 7.46106 67.4671 7.45101 67.8139 7.42912C68.2039 7.40758 68.6051 7.38569 69.0185 7.3638ZM25.0193 7.03541C26.7986 7.03541 28.0842 7.55509 28.8768 8.59265C29.6686 9.6313 30.0759 11.1997 30.0979 13.2978L30.1032 14.9612C30.1095 15.8675 30.1212 16.6616 30.1387 17.3435L30.1465 17.6289C30.1793 18.7426 30.2708 19.6674 30.4227 20.4032C30.5747 21.1389 30.808 21.739 31.1231 22.2034C31.4371 22.6685 31.888 23.1279 32.4743 23.5826L30.2924 23.5173L28.405 23.4685L26.7449 23.4527L25.2951 23.4685L22.4798 23.5826L23.147 22.9256C23.3533 22.7255 23.5434 22.5443 23.7168 22.3825C24.0636 22.0577 24.3466 21.6794 24.563 21.2469C24.7798 20.8141 24.9375 20.2686 25.0351 19.6082C25.1334 18.9486 25.1821 18.0563 25.1821 16.9316C25.1821 15.6772 25.1165 14.6336 24.9862 13.7999C24.8562 12.9683 24.6556 12.3029 24.3844 11.8048C24.1129 11.3077 23.7542 10.9563 23.3102 10.7503C22.8651 10.5454 22.3278 10.4424 21.6987 10.4424C21.3728 10.4424 20.9609 10.4751 20.461 10.5393C19.9623 10.6046 19.3432 10.7561 18.6061 10.9937C18.7361 11.686 18.8009 12.4544 18.8009 13.2978L18.8041 14.567C18.8096 15.6412 18.8224 16.5714 18.8419 17.3569L18.8495 17.6447C18.8823 18.7705 18.9749 19.6943 19.1268 20.4189C19.2788 21.1439 19.5121 21.739 19.8262 22.2034C20.1412 22.6685 20.5921 23.1279 21.1773 23.5826L18.9965 23.5173L17.1081 23.4685L15.448 23.4527L13.9992 23.4685L11.1839 23.5826L11.8507 22.9256C12.0568 22.7255 12.2468 22.5443 12.4205 22.3825C12.7673 22.0577 13.0496 21.6794 13.2671 21.2469C13.4836 20.8141 13.6416 20.2686 13.7389 19.6082C13.8365 18.9486 13.8851 18.0563 13.8851 16.9316C13.8851 15.6772 13.8206 14.6336 13.6903 13.7999C13.5603 12.9683 13.3586 12.3029 13.0871 11.8048C12.8159 11.3077 12.4583 10.9563 12.0132 10.7503C11.5681 10.5454 11.0309 10.4424 10.4017 10.4424C10.0978 10.4424 9.7125 10.4751 9.24652 10.5393C8.77945 10.6046 8.19788 10.7345 7.50323 10.9283L7.52278 16.4429C7.52789 17.476 7.54327 18.3257 7.56949 18.9913C7.60226 19.825 7.69373 20.5062 7.84569 21.0359C7.99766 21.5656 8.23713 22.0092 8.56195 22.3656C8.88785 22.7231 9.34375 23.1279 9.93 23.5826L8.46436 23.5173L7.52087 23.4828L6.98323 23.4685L5.33897 23.4527L3.59749 23.4685L1.6669 23.528C1.28626 23.5423 0.616619 23.5676 0.228669 23.5826C0.770993 23.0855 1.20492 22.647 1.5301 22.2687C1.856 21.8904 2.10015 21.4576 2.26328 20.9706C2.42605 20.4843 2.52832 19.905 2.57226 19.235L2.5981 18.7575C2.62074 18.2496 2.63373 17.6502 2.63698 16.9596L2.6378 16.6068C2.6378 15.309 2.61007 14.2711 2.55641 13.4919C2.50168 12.7138 2.38248 12.0642 2.19774 11.5453C2.01265 11.0267 1.74761 10.5831 1.39974 10.2156C1.1025 9.89995 0.717153 9.56086 0.243932 9.19808L0 9.01471L7.4881 7.03541L7.50323 10.5702L7.74822 10.269C8.64365 9.19035 9.50741 8.39344 10.3373 7.89568C11.2919 7.32253 12.4086 7.03541 13.6903 7.03541C15.1001 7.03541 16.197 7.34908 16.9777 7.97679C17.7595 8.60378 18.2914 9.56598 18.5733 10.8641C19.55 9.50173 20.5424 8.52339 21.5518 7.92726C22.5612 7.33329 23.7168 7.03541 25.0193 7.03541ZM41.2274 8.75846C40.6199 8.75846 40.0985 8.92068 39.6656 9.24512C39.2306 9.56885 38.8792 10.0232 38.608 10.6071C38.3357 11.1911 38.1413 11.8826 38.0221 12.6823C37.9029 13.4819 37.8435 14.3687 37.8435 15.3417C37.8435 17.6555 38.173 19.3904 38.8352 20.546C39.4967 21.7031 40.4568 22.2809 41.715 22.2809C42.8432 22.2809 43.6456 21.795 44.1231 20.8223C44.5998 19.8494 44.839 18.3252 44.839 16.249C44.839 13.764 44.5303 11.8934 43.9117 10.6398C43.293 9.38581 42.3981 8.75846 41.2274 8.75846ZM95.8905 8.7538C95.3046 8.7538 94.7454 8.87869 94.2142 9.12705C93.683 9.3754 93.2102 9.75942 92.799 10.278C92.3859 10.7966 92.0615 11.4674 91.8231 12.2889C91.5836 13.1104 91.4644 14.0942 91.4644 15.2401C91.4644 16.2565 91.5627 17.1157 91.7575 17.818C91.9531 18.5208 92.2242 19.0828 92.5707 19.5045C92.9182 19.9262 93.3413 20.2291 93.8397 20.4121C94.3392 20.5962 94.8815 20.6881 95.4674 20.6881C95.9877 20.6881 96.4861 20.6289 96.9636 20.509C97.4404 20.3913 97.9507 20.2338 98.493 20.0389C98.493 19.3254 98.4869 18.5961 98.4772 17.85C98.4653 17.1046 98.4602 16.4069 98.4602 15.7587V9.46764C97.5924 8.99246 96.7364 8.7538 95.8905 8.7538ZM76.3769 8.59588C75.4666 8.59588 74.7773 9.06604 74.3117 10.0074C73.8439 10.9474 73.5897 12.2171 73.5461 13.8174L79.1109 13.6552V12.9091C79.0669 12.3262 78.9906 11.7689 78.8822 11.2395C78.7742 10.7101 78.6114 10.2497 78.395 9.86099C78.1775 9.47195 77.9013 9.16401 77.5646 8.93648C77.2282 8.71001 76.8328 8.59588 76.3769 8.59588Z" fill="white"/>
</g>
<defs>
<clipPath id="clip0_433_561">
<rect width="113" height="24" fill="white"/>
</clipPath>
</defs>
</svg>
