<svg id="Layer_1" data-name="Layer 1" xmlns="http://www.w3.org/2000/svg" viewBox="0 0 786.7 282.27"><defs><style>.cls-1,.cls-4{fill:#231f20;}.cls-2,.cls-3{fill:#007dc3;}.cls-3,.cls-4{fill-rule:evenodd;}</style></defs><title>00340</title><path class="cls-1" d="M785.8,139.37a10.77,10.77,0,1,1-10.73-10.48A10.53,10.53,0,0,1,785.8,139.37Zm-18.85,0a8.12,8.12,0,0,0,8.18,8.37,8,8,0,0,0,8-8.3,8.09,8.09,0,1,0-16.17-.07Zm6.46,5.5H771V134.39a21.34,21.34,0,0,1,4-.32,6.65,6.65,0,0,1,3.65.76,2.93,2.93,0,0,1,1,2.3,2.68,2.68,0,0,1-2.17,2.43v.13a3.09,3.09,0,0,1,1.91,2.56,8,8,0,0,0,.77,2.62h-2.62a9,9,0,0,1-.83-2.56c-.19-1.15-.83-1.66-2.17-1.66h-1.15Zm.06-6h1.15c1.34,0,2.43-.44,2.43-1.53s-.7-1.6-2.24-1.6a6,6,0,0,0-1.34.13Z"/><polygon class="cls-2" points="220.02 0.36 154.33 118.05 118.69 118.05 122.19 45.88 121.87 45.88 82 118.05 45.63 118.05 52.79 0.36 85.55 0.36 77.58 72.21 77.95 72.54 116.78 0.36 152.1 0.36 147.43 73.02 147.75 73.02 184.37 0.36 220.02 0.36 220.02 0.36 220.02 0.36"/><path class="cls-3" d="M238.43,32.88l-25.76,85.17H179.84l25.67-85.17ZM248,.36l-6.63,22.48H208.72L215.26.36Z"/><path class="cls-2" d="M270,46Q284.83,30.95,304.25,31q11.56,0,16.83,5.9a18.4,18.4,0,0,1,4.51,14.49q-.45,5.14-5,20.23l-13.94,46.48H273.92l11.89-39.57q4.32-14.53,4.5-16.62.63-7.06-5.8-7.06-7.23,0-13.2,6.78t-9.82,19.55l-11.26,36.92H217.32l25.75-85.17h30.59l-3.93,12.84L270,46Z"/><path class="cls-4" d="M404.12,52.23l-27.18,3.25q-.6-7.62-9.51-7.61c-3.48,0-6.18.71-8.08,2.14a6.87,6.87,0,0,0-3.08,5,5.57,5.57,0,0,0,2,4.87q2.22,2,12.4,3.61,16.39,2.77,21.43,8.36t4.32,14.94q-1,13-12.47,22.19t-33.44,9.19q-18,0-25.83-5.86T316.42,93l28.63-2.77q1,10.23,11.21,10.22a16.3,16.3,0,0,0,8.56-2.29A8.07,8.07,0,0,0,369,91.53c.2-2.58-.54-4.33-2.21-5.23s-4.9-1.77-9.69-2.61q-16.51-2.94-22-8.88t-4.77-15a28.76,28.76,0,0,1,5.58-14.42,33.52,33.52,0,0,1,14.33-11.13q9.33-4.08,22.48-4.08,15,0,22.68,4.95t8.74,17.08Z"/><path class="cls-4" d="M492.83,32.1l-22.6,84.08H443.16l3.62-12.84-.33-.31q-12.92,15.14-30.08,15.13-10.32,0-15-5.9a19.66,19.66,0,0,1-4-14.23q.44-5.46,4.6-20.92l12.28-45H443L431.89,73.15q-2.4,9-2.76,10.5a22.74,22.74,0,0,0-.53,3.61l0,.23q-.52,6.83,5,6.82,6.49,0,11.79-6.66T454,68.55l9.83-36.45Z"/><path class="cls-4" d="M524.64,96.53q6.3,0,11.51-9t6.22-21.71q.61-7.77-2-11.18a8.07,8.07,0,0,0-6.66-3.4q-8,0-13,10a54.53,54.53,0,0,0-5.87,20.49q-.59,7.44,2.49,11.09a9.34,9.34,0,0,0,7.38,3.65Zm-1.17-55.64q6.64-6.33,11.69-8.51a29.71,29.71,0,0,1,11.9-2.18q12.65,0,18.67,9.43t4.76,25.44q-1.68,21.39-13.06,37.32t-26.86,15.93q-15.75,0-22.77-13.31l-11.65,43.35H467.31L498.72,32.1h26.57l-2.08,8.48.26.31Z"/><path class="cls-4" d="M610.25,96.53q6.3,0,11.51-9T628,65.86q.62-7.77-2-11.18a8.07,8.07,0,0,0-6.66-3.4q-8,0-13,10a54.53,54.53,0,0,0-5.87,20.49q-.58,7.44,2.49,11.09a9.36,9.36,0,0,0,7.38,3.65Zm-1.17-55.64q6.64-6.33,11.69-8.51a29.71,29.71,0,0,1,11.9-2.18q12.65,0,18.66,9.43t4.77,25.44Q654.43,86.46,643,102.39t-26.86,15.93q-15.75,0-22.78-13.31l-11.64,43.35H552.93L584.32,32.1H610.9l-2.08,8.48.26.31Z"/><polygon class="cls-4" points="706.53 0 675.42 116.18 646.52 116.18 677.7 0 706.53 0 706.53 0"/><path class="cls-4" d="M786.7,32.1l-55,94.78q-8.09,13.88-14.85,18.62a27.28,27.28,0,0,1-16.09,4.76A68.15,68.15,0,0,1,679.93,147l4-21.71a21.68,21.68,0,0,0,9.23,2.06q8.41,0,14.16-11.18L699.5,32.1h28.34l-.53,58.41h.28L757.66,32.1Z"/><path class="cls-1" d="M32.6,80.27.41,146.21a4.25,4.25,0,0,0,0,3.73,3,3,0,0,0,2.78,1.77l298-12.49a3.49,3.49,0,0,0,3-3.74,3.43,3.43,0,0,0-3.11-3.61H24.56c1.35-4.78,13.7-48.61,13.7-48.61l.16-1.15a3.77,3.77,0,0,0-1.84-3.36,2.9,2.9,0,0,0-4,1.52Z"/><path class="cls-1" d="M319.87,281.57l5-29.28h10a8.2,8.2,0,0,1,3.86.71,5.59,5.59,0,0,1,2.15,2.45,8.73,8.73,0,0,1,.89,4,11.68,11.68,0,0,1-1.43,5.62,7.65,7.65,0,0,1-3.72,3.62,14.44,14.44,0,0,1-5.55,1h-6l-2,11.89Zm5.82-15.2H331a10.13,10.13,0,0,0,4.3-.71,5.72,5.72,0,0,0,2.39-2.39,7.14,7.14,0,0,0,1-3.67,5.21,5.21,0,0,0-.5-2.46,2.87,2.87,0,0,0-1.35-1.3,8.69,8.69,0,0,0-3.09-.37h-6.12Z"/><path class="cls-1" d="M343.33,281.57l5-29.28h3.24l-4.46,26h12.67l-.56,3.32Z"/><path class="cls-1" d="M369.09,252.29h3.2l-3.06,18a22.64,22.64,0,0,0-.38,3.34,5,5,0,0,0,1.5,3.73,5.23,5.23,0,0,0,3.85,1.48,6.12,6.12,0,0,0,5.08-2.55q1.5-2,2.51-7.87l2.76-16.12h3.22l-2.94,17.18a23.86,23.86,0,0,1-2.28,7.51A10.08,10.08,0,0,1,379,280.8a8.85,8.85,0,0,1-4.69,1.27,8.57,8.57,0,0,1-6.31-2.3,8.33,8.33,0,0,1-2.32-6.19,36,36,0,0,1,.67-5.31Z"/><path class="cls-1" d="M389.88,281.57l4.86-29.28h3.93l2.55,19c.34,2.52.55,4.91.65,7.17.68-2,1.78-4.65,3.32-8l8.38-18.13h4l-4.75,29.28h-3.15L412,267.33q.84-4.95,2.38-11.07-1,2.87-2.56,6.16L403,281.57h-3.09l-2.53-18.77c-.22-1.66-.39-3.66-.5-6q-.37,3.74-.75,6.11L393,281.57Z"/><path class="cls-1" d="M419.25,281.57l5-29.28h7.43a12.53,12.53,0,0,1,4,.48,5.57,5.57,0,0,1,3,2.35,7.76,7.76,0,0,1,1,4.16,7.9,7.9,0,0,1-1.12,4.27,7,7,0,0,1-3.31,2.75,6,6,0,0,1,2.89,2.29,6.67,6.67,0,0,1,1,3.72,9.91,9.91,0,0,1-1.2,4.75,8.7,8.7,0,0,1-3.07,3.37,7.6,7.6,0,0,1-4.07,1.14Zm3.79-3.32h5.46a15.94,15.94,0,0,0,2.87-.16,6.46,6.46,0,0,0,2.28-.94,4.78,4.78,0,0,0,1.62-2,6.34,6.34,0,0,0,.64-2.85,4.09,4.09,0,0,0-1.12-3.2c-.74-.68-2.05-1-3.92-1h-6.1Zm2.3-13.44h4.87q3.51,0,4.86-1.22a5.39,5.39,0,0,0,1.66-4.13,4.5,4.5,0,0,0-.52-2.22A2.9,2.9,0,0,0,434.9,256a7.64,7.64,0,0,0-2.89-.37h-5.09Z"/><path class="cls-1" d="M443.38,281.57l5-29.28h3.22l-5,29.28Z"/><path class="cls-1" d="M454.3,281.57l5-29.28h3.13l4,11c1.18,3.23,2.11,5.94,2.78,8.11q.72,2.27,1.54,5.73c.31-2.51.68-5.06,1.1-7.63l3-17.21h3.11l-5,29.28h-3.17l-5.92-16.9c-1-3-1.87-5.65-2.46-7.91-.15,1.91-.46,4.24-.93,7l-3,17.8Z"/><path class="cls-1" d="M492.22,270l.56-3.31H503.3l-2,11.92a17,17,0,0,1-4.62,2.52,14.49,14.49,0,0,1-4.9.92c-3.4,0-5.91-1.16-7.55-3.47a14.76,14.76,0,0,1-2.45-8.76,23.36,23.36,0,0,1,1.93-9.65,15.15,15.15,0,0,1,4.84-6.36,10.86,10.86,0,0,1,6.41-2,8.67,8.67,0,0,1,6.77,2.9,11.91,11.91,0,0,1,2.49,6.17l-3.15.42a8.13,8.13,0,0,0-2.15-4.69A5.66,5.66,0,0,0,494.8,255a7.8,7.8,0,0,0-4.75,1.66,11.77,11.77,0,0,0-3.64,5.11,21.2,21.2,0,0,0-1.42,8.1q0,4.55,1.84,6.74a6,6,0,0,0,4.88,2.19,11.93,11.93,0,0,0,6.72-2.52l1.08-6.29Z"/><path class="cls-1" d="M533.74,278.71a14.67,14.67,0,0,1-3.58,2.8,7.26,7.26,0,0,1-3.15.7,6.77,6.77,0,0,1-5.21-2.27,8.54,8.54,0,0,1-2.06-6,9.56,9.56,0,0,1,1.58-5.65,13.41,13.41,0,0,1,4.73-4,29.86,29.86,0,0,1-1-3.11,11.45,11.45,0,0,1-.24-2.36,7.84,7.84,0,0,1,1.68-4.9,5.24,5.24,0,0,1,4.35-2.19,4.81,4.81,0,0,1,3.67,1.58,5.74,5.74,0,0,1,1.46,4.05,7.11,7.11,0,0,1-1.29,4,15.41,15.41,0,0,1-4.68,4,55.76,55.76,0,0,0,4.12,7.76,28.81,28.81,0,0,0,2.3-4.17l2.57,1.62a25.17,25.17,0,0,1-3,5.43q1.14,1.76,2.78,4l-2.24,2.17A21.05,21.05,0,0,1,533.74,278.71ZM532,275.92a65.12,65.12,0,0,1-4.75-8.76,11,11,0,0,0-3.24,2.52,6.27,6.27,0,0,0-1.28,3.86,5.76,5.76,0,0,0,1.31,3.89,3.91,3.91,0,0,0,3.07,1.52Q529.59,279,532,275.92Zm-3.16-13.17c2.79-1.72,4.18-3.47,4.18-5.27a3,3,0,0,0-.68-2,2.06,2.06,0,0,0-1.6-.78,2.58,2.58,0,0,0-2,1.09,4.21,4.21,0,0,0-.88,2.72A11.13,11.13,0,0,0,528.86,262.75Z"/><path class="cls-1" d="M553.6,281.57l4.86-29.28h3.94l2.55,19q.49,3.78.65,7.17c.67-2,1.78-4.65,3.31-8l8.39-18.13h4l-4.75,29.28h-3.15l2.38-14.24q.84-4.95,2.39-11.07-1,2.87-2.57,6.16l-8.88,19.15h-3.09l-2.53-18.77c-.23-1.66-.39-3.66-.51-6q-.36,3.74-.75,6.11l-3.1,18.68Z"/><path class="cls-1" d="M583.14,281.57l5-29.28h17.24l-.56,3.31h-14l-1.57,9.15h13.65l-.56,3.32H588.67l-1.74,10.18h15l-.57,3.32Z"/><path class="cls-1" d="M625.7,271.26l3.17.54a15.88,15.88,0,0,1-4.44,7.71,9.51,9.51,0,0,1-6.4,2.56,8.49,8.49,0,0,1-6.88-3.18q-2.62-3.18-2.63-9.38a21.82,21.82,0,0,1,3.3-12.27q3.57-5.44,9.24-5.45a8.3,8.3,0,0,1,6.08,2.42A10.43,10.43,0,0,1,630,261l-3,.34Q626,255,621.19,255q-4.23,0-6.84,4.32a19.41,19.41,0,0,0-2.61,10.23c0,3.07.61,5.37,1.85,6.93a5.75,5.75,0,0,0,4.69,2.32,6,6,0,0,0,4.27-1.76A11.65,11.65,0,0,0,625.7,271.26Z"/><path class="cls-1" d="M632.68,281.57l5-29.28h3.22l-2.08,12.16h12.43l2.08-12.16h3.23l-5,29.28h-3.22l2.36-13.8H638.27l-2.36,13.8Z"/><path class="cls-1" d="M656.43,281.57l13.62-29.28h3.77l4,29.28h-3.12l-1.15-8.43H663.8l-3.86,8.43Zm8.75-11.45h7.93l-.92-7.35c-.35-2.9-.58-5.33-.67-7.29a56.9,56.9,0,0,1-2.38,6Z"/><path class="cls-1" d="M682.67,281.57l5-29.28h3.13l4,11c1.18,3.23,2.11,5.94,2.78,8.11q.72,2.27,1.54,5.73c.31-2.51.68-5.06,1.1-7.63l3-17.21h3.11l-5,29.28h-3.17l-5.92-16.9c-1.05-3-1.87-5.65-2.46-7.91-.15,1.91-.46,4.24-.93,7l-3,17.8Z"/><path class="cls-1" d="M708.47,281.57l5-29.28h3.22l-5,29.28Z"/><path class="cls-1" d="M738,271.26l3.18.54a15.88,15.88,0,0,1-4.44,7.71,9.51,9.51,0,0,1-6.4,2.56,8.49,8.49,0,0,1-6.88-3.18q-2.64-3.18-2.63-9.38a21.9,21.9,0,0,1,3.29-12.27q3.58-5.44,9.25-5.45a8.32,8.32,0,0,1,6.08,2.42,10.43,10.43,0,0,1,2.83,6.79l-3,.34q-.93-6.31-5.78-6.31-4.23,0-6.84,4.32A19.41,19.41,0,0,0,724,269.58c0,3.07.62,5.37,1.86,6.93a5.74,5.74,0,0,0,4.69,2.32,5.93,5.93,0,0,0,4.26-1.76A11.5,11.5,0,0,0,738,271.26Z"/><path class="cls-1" d="M742.92,281.57l13.62-29.28h3.77l4,29.28h-3.11L760,273.14h-9.73l-3.85,8.43Zm8.75-11.45h7.93l-.92-7.35c-.36-2.9-.58-5.33-.68-7.29a52.83,52.83,0,0,1-2.38,6Z"/><path class="cls-1" d="M768.66,281.57l5-29.28h3.24l-4.47,26h12.67l-.56,3.32Z"/><path class="cls-1" d="M408.41,200.22A33.68,33.68,0,0,1,410.08,190q2.12-6.73,6.27-10.22a14.54,14.54,0,0,1,9.61-3.48,11.7,11.7,0,0,1,9.34,4.31q3.68,4.31,3.67,11.74a29.34,29.34,0,0,1-2.62,12.43,20.32,20.32,0,0,1-6.52,8.4,14.65,14.65,0,0,1-8.57,2.72,11.07,11.07,0,0,1-8.9-3.92A17.49,17.49,0,0,1,408.41,200.22Zm6.4-.16a10.26,10.26,0,0,0,2.08,6.75,6.34,6.34,0,0,0,5.05,2.51,7.62,7.62,0,0,0,4.76-1.87,14.92,14.92,0,0,0,4.08-6.18,23,23,0,0,0,1.74-8.72,11.33,11.33,0,0,0-2.14-7.31,6,6,0,0,0-4.94-2.35,7.84,7.84,0,0,0-4.86,1.91,14.43,14.43,0,0,0-4.08,6.11A24.3,24.3,0,0,0,414.81,200.06Z"/><path class="cls-1" d="M450.25,215.25,456.8,177h22l-1.1,6.4H462.16l-1.57,9.19h15.17l-1.09,6.4H459.48l-2.8,16.3Z"/><path class="cls-1" d="M529.84,198.15H517.77l-2.94,17.1h-6.44L515,177h6.46l-2.54,14.79h12.06L533.46,177h6.44l-6.55,38.29h-6.44Z"/><path class="cls-1" d="M551.5,200.22A33.68,33.68,0,0,1,553.17,190q2.12-6.73,6.27-10.22a14.52,14.52,0,0,1,9.61-3.48,11.71,11.71,0,0,1,9.34,4.31q3.68,4.31,3.67,11.74a29.34,29.34,0,0,1-2.62,12.43,20.32,20.32,0,0,1-6.52,8.4,14.67,14.67,0,0,1-8.57,2.72,11.07,11.07,0,0,1-8.9-3.92A17.49,17.49,0,0,1,551.5,200.22Zm6.4-.16a10.26,10.26,0,0,0,2.08,6.75,6.34,6.34,0,0,0,5,2.51,7.57,7.57,0,0,0,4.75-1.87,14.92,14.92,0,0,0,4.09-6.18,23,23,0,0,0,1.74-8.72,11.33,11.33,0,0,0-2.14-7.31,6,6,0,0,0-4.94-2.35,7.79,7.79,0,0,0-4.86,1.91,14.43,14.43,0,0,0-4.08,6.11A24.3,24.3,0,0,0,557.9,200.06Z"/><path class="cls-1" d="M599.56,177H606l-3.53,20.8-.86,5a9.1,9.1,0,0,0-.1,1.3,4.84,4.84,0,0,0,5.22,5.24,6.54,6.54,0,0,0,3.62-1,6.65,6.65,0,0,0,2.37-3,36.65,36.65,0,0,0,1.79-7.48L618.27,177h6.44L621,197.86a48.77,48.77,0,0,1-2.31,9.43,14.18,14.18,0,0,1-4.76,6.48,12.58,12.58,0,0,1-7.49,2.14,10.77,10.77,0,0,1-8.2-3.15c-2-2.1-3-5-3-8.58a52.06,52.06,0,0,1,.91-7.05Z"/><path class="cls-1" d="M635.37,202.85l6.14-.4a12.13,12.13,0,0,0,.71,4.29,4.14,4.14,0,0,0,1.9,1.89,8,8,0,0,0,3.63.69,6.66,6.66,0,0,0,4.48-1.3,4.29,4.29,0,0,0,1.51-3.42,3.91,3.91,0,0,0-.87-2.56,16.77,16.77,0,0,0-4.46-2.95,34.39,34.39,0,0,1-6.07-3.78A9.08,9.08,0,0,1,640,192a11.46,11.46,0,0,1-.82-4.47,11.14,11.14,0,0,1,3-8.17,11,11,0,0,1,8.2-3.06,11.57,11.57,0,0,1,8.4,3q3.15,3,3.46,8.56l-6.19.31c-.31-3.78-2.22-5.67-5.71-5.67a5.58,5.58,0,0,0-3.81,1.09,3.77,3.77,0,0,0-1.21,3,3.65,3.65,0,0,0,1.15,2.8,23.38,23.38,0,0,0,4.56,2.93,34.74,34.74,0,0,1,6,3.69,8.88,8.88,0,0,1,2.29,3.24,11.27,11.27,0,0,1,.8,4.34,12,12,0,0,1-3.43,8.86,12.18,12.18,0,0,1-9,3.44,13.74,13.74,0,0,1-7.22-1.81,9.13,9.13,0,0,1-4.08-4.8A17.78,17.78,0,0,1,635.37,202.85Z"/><path class="cls-1" d="M686.86,215.25h-6.44l5.49-31.89h-9.43l1.09-6.4h24.95l-1.1,6.4h-9.07Z"/><path class="cls-1" d="M710.68,200.22A33.68,33.68,0,0,1,712.35,190q2.11-6.73,6.27-10.22a14.52,14.52,0,0,1,9.61-3.48,11.71,11.71,0,0,1,9.34,4.31q3.67,4.31,3.67,11.74a29.35,29.35,0,0,1-2.63,12.43,20.3,20.3,0,0,1-6.51,8.4,14.67,14.67,0,0,1-8.57,2.72,11.08,11.08,0,0,1-8.91-3.92A17.48,17.48,0,0,1,710.68,200.22Zm6.4-.16a10.26,10.26,0,0,0,2.08,6.75,6.33,6.33,0,0,0,5.05,2.51,7.57,7.57,0,0,0,4.75-1.87,14.92,14.92,0,0,0,4.09-6.18,23,23,0,0,0,1.74-8.72,11.38,11.38,0,0,0-2.14-7.31,6,6,0,0,0-4.94-2.35,7.79,7.79,0,0,0-4.86,1.91,14.53,14.53,0,0,0-4.09,6.11A24.49,24.49,0,0,0,717.08,200.06Z"/><path class="cls-1" d="M777.41,215.25h-6l-8.47-25.72-4.4,25.72h-6L759.06,177h6l8.47,25.63L778,177h6Z"/></svg>